<svg xmlns="http://www.w3.org/2000/svg" viewBox="0 0 1256.98 1014.94"><defs><style>.cls-1{fill:#3a77b3;}.cls-2{fill:#0064a6;}.cls-3{fill:none;}.cls-4{fill:#a11d21;}.cls-5{fill:#f2644d;}.cls-6{fill:#ee312f;}</style></defs><title>Asset 1</title><g id="Layer_2" data-name="Layer 2"><g id="Layer_1-2" data-name="Layer 1"><path class="cls-1" d="M534.49,797.71l176.24,68.12a9.2,9.2,0,0,0,7-.17l118.63-52.95L656.57,742.09Z"/><polygon class="cls-2" points="534.49 418.89 656.57 366.27 656.57 742.09 534.49 797.71 534.49 418.89"/><polygon class="cls-2" points="894.06 547.42 1016.15 494.8 1016.15 870.62 894.06 926.24 894.06 547.42"/><polygon class="cls-2" points="714.27 482.78 836.36 430.16 836.36 812.71 714.27 866.44 714.27 482.78"/><line class="cls-3" x1="1016.15" y1="870.43" x2="894.06" y2="926.06"/><polygon class="cls-1" points="714.27 482.78 893.29 549.79 1015.38 495.3 836.36 430.16 714.27 482.78"/><polygon class="cls-1" points="894.06 926.05 1073.08 990.06 1195.17 935.57 1016.15 870.43 894.06 926.05"/><polygon class="cls-1" points="358.81 355 534.49 418.89 656.57 366.27 480.9 299.38 358.81 355"/><path class="cls-1" d="M175.68,669.31l176.24,68.12a9.2,9.2,0,0,0,7-.17l118.63-52.95L297.76,613.69Z"/><polygon class="cls-2" points="175.68 290.49 297.76 237.87 297.76 613.69 175.68 669.31 175.68 290.49"/><polygon class="cls-2" points="355.46 354.38 477.55 301.76 477.55 684.31 355.46 738.04 355.46 354.38"/><polygon class="cls-1" points="355.46 354.38 534.49 421.39 656.57 366.9 477.55 301.76 355.46 354.38"/><polygon class="cls-1" points="0 226.6 175.68 290.49 297.76 237.87 122.09 170.98 0 226.6"/><polygon class="cls-1" points="1256.98 908.2 1016.15 1014.94 1256.98 1009.23 1256.98 908.2"/><polygon class="cls-4" points="138.28 190 84.28 96 138.28 0 189.28 95 138.28 190"/><polygon class="cls-5" points="138.28 190 138.28 0 189.28 95 138.28 190"/><polygon class="cls-6" points="138.28 190 138.28 95 189.28 95 138.28 190"/><polygon class="cls-6" points="138.28 95 84.28 96 138.28 0 138.28 95"/><polygon class="cls-4" points="1092.28 939 1038.28 845 1092.28 749 1143.28 844 1092.28 939"/><polygon class="cls-5" points="1092.28 939 1092.28 749 1143.28 844 1092.28 939"/><polygon class="cls-6" points="1092.28 939 1092.28 844 1143.28 844 1092.28 939"/><polygon class="cls-6" points="1092.28 844 1038.28 845 1092.28 749 1092.28 844"/></g></g></svg>