<svg xmlns="http://www.w3.org/2000/svg" viewBox="0 0 1017.54 820.44"><defs><style>.cls-1{fill:#ee312f;}.cls-2{fill:#0064a6;}.cls-3{opacity:0.3;}.cls-4{fill:#044d7d;}.cls-5{fill:#a11d21;}.cls-6{fill:#f2644d;}.cls-7{fill:#3a77b3;}</style></defs><title>Asset 2</title><g id="Layer_2" data-name="Layer 2"><g id="Layer_1-2" data-name="Layer 1"><polygon class="cls-1" points="469.51 683.85 469.55 642.21 538.59 682.07 469.51 683.85"/><path class="cls-2" d="M453,697.17l-57.66,33.52-.29-.1L453,697.15Z"/><path class="cls-2" d="M342.34,550.82l-1.52.85h0Z"/><polygon class="cls-2" points="565.27 589.12 540.92 603.18 565.09 589.02 565.27 589.12"/><g class="cls-3"><polygon class="cls-2" points="495.63 178.75 497.74 141.42 563.08 179.61 495.63 178.75"/><path class="cls-2" d="M605,98.54l-.05,20.91V141l-.05,0-.23.08V98.48l.28.05Z"/><polygon class="cls-2" points="540.92 603.18 533.17 607.72 533.11 607.69 540.92 603.18"/><path class="cls-2" d="M949.32,441.82l0,0-1.75,1-.05,0-89.12,51.45-.43-.25-82.42,47.58h0L688,592.18l.11.06-69.3,40L567,662.61l-64.25-37.09,30.38-17.8,7.75-4.54,24.35-14.06,56-32.31-.1-.06L712,504.26h0l90.29-52.13.44.25,80.62-46.55-.35-.2-4.14,2.4c45.4-26.22,50.34-65.87,11-88.58a97.51,97.51,0,0,0-16-7.32c-40.16-14.33-97.88-9.38-137.61,13.55l4.15-2.39-.35-.2L651,374.55h0l-87.52,50.53.11.06-90.91,52.48-.3-.17L429.4,502.23l-41.7,24.08-.71-.41-44.65,24.92-1.53.84c-78.53,43.49-203.65,42.7-281.44-2.22s-79.18-117.08-4-162.42l0,0,1.62-.93,80.58-46.53.37.21,50.26-28.52-.11-.06,93.25-52.92h0l89.6-50.85-.16-.1,69.46-36.07,65.23,37.66L435.13,247l-88.07,50h0L257.3,347.86l.1.06-53.12,30.14.67.39-32.52,18.78-.18.1L124.37,425l.37.21,3.74-2.17c-41.05,23.71-40.85,62.26.47,86.11A116.09,116.09,0,0,0,145.54,517c41.08,15.7,96.87,13.31,132.8-7.43l-3.75,2.16,87.42-45,.31.16,52.14-30.1.31.18,81.85-47.26-.1-.06,90.91-52.49h0l88.5-51.09,1.79-1,0,0c86.6-48.17,215.12-52.88,289.12-10.16S1032.74,391.82,949.32,441.82Z"/></g><polygon class="cls-4" points="531.23 41.97 531.23 126.33 604.64 168.71 604.64 168.87 530.95 126.33 530.95 41.78 531.23 41.94 604.64 84.32 604.64 84.35 531.23 41.97"/><polygon class="cls-5" points="386.16 735.89 386.16 820.44 312.47 777.9 312.47 693.35 386.16 735.89"/><polygon class="cls-1" points="459.61 693.35 459.42 777.21 386.16 819.51 386.16 771.02 386.24 736.01 395.39 730.69 453.05 697.17 459.61 693.35"/><polygon class="cls-2" points="386.05 819.57 386.16 771.02 386.16 819.51 386.05 819.57"/><polygon class="cls-2" points="459.61 693.35 453.05 697.17 395.39 730.69 386.24 736.01 386.24 735.71 395.1 730.59 453.03 697.15 459.61 693.35"/><polygon class="cls-6" points="459.61 693.35 453.03 697.15 395.1 730.59 386.24 735.71 386.24 736.01 386.16 736.06 386.16 735.89 312.47 693.35 312.47 693.54 312.14 693.35 385.28 651.57 459.61 693.35"/><polygon class="cls-7" points="312.47 693.35 386.16 735.89 386.16 736.06 386.14 736.07 312.47 693.54 312.47 693.35"/><polygon class="cls-1" points="459.61 693.35 453.05 697.17 395.39 730.69 386.24 736.01 386.24 735.71 395.1 730.59 453.03 697.15 459.61 693.35"/><polygon class="cls-2" points="604.64 84.35 604.64 168.71 531.23 126.33 531.23 41.97 604.64 84.35"/><polygon class="cls-4" points="604.92 84.32 604.92 168.87 604.64 168.71 604.64 84.35 531.23 41.97 531.23 41.78 604.92 84.32"/><polygon class="cls-2" points="678.37 41.78 678.18 125.64 604.92 167.94 604.92 119.45 604.97 98.54 605 84.44 678.37 41.78"/><polygon class="cls-2" points="604.87 141.07 604.92 119.45 604.92 167.94 604.81 168 604.87 141.07"/><polygon class="cls-2" points="678.37 41.78 605 84.44 605 84.14 678.37 41.78"/><polygon class="cls-7" points="678.37 41.78 605 84.44 604.92 84.49 604.9 84.5 604.64 84.35 531.23 41.97 530.95 41.81 530.9 41.78 604.04 0 678.37 41.78"/></g></g></svg>