<svg xmlns="http://www.w3.org/2000/svg" viewBox="0 0 1242.9 1242.9"><defs><style>.cls-1{fill:#a28f7f;}.cls-2{fill:#f3e0c8;}.cls-3{fill:#e1c9b5;}</style></defs><title>Asset 2</title><g id="Layer_2" data-name="Layer 2"><g id="Layer_1-2" data-name="Layer 1"><rect class="cls-1" x="456.47" y="367.88" width="210.65" height="30.66" transform="translate(435.52 -285.01) rotate(45)"/><rect class="cls-1" x="367.18" y="457.17" width="210.65" height="30.66" transform="translate(472.5 -195.72) rotate(45)"/><rect class="cls-1" x="277.89" y="546.47" width="210.65" height="30.66" transform="translate(509.49 -106.43) rotate(45)"/><rect class="cls-2" x="392.36" y="270.1" width="38.69" height="283.21" transform="translate(411.71 -170.53) rotate(45)"/><rect class="cls-3" x="453.4" y="331.14" width="38.69" height="283.21" transform="translate(472.75 -195.82) rotate(45)"/><rect class="cls-2" x="485.75" y="361.42" width="34.54" height="283.21" transform="translate(503.02 -208.36) rotate(45)"/><rect class="cls-3" x="424.96" y="300.62" width="34.54" height="283.21" transform="translate(442.23 -183.18) rotate(45)"/><rect class="cls-2" x="513.96" y="391.69" width="38.69" height="283.21" transform="translate(533.3 -220.9) rotate(45)"/><rect class="cls-1" x="158.57" y="69.98" width="210.65" height="30.66" transform="translate(137.62 -161.62) rotate(45)"/><rect class="cls-1" x="69.28" y="159.28" width="210.65" height="30.66" transform="translate(174.6 -72.32) rotate(45)"/><rect class="cls-1" x="-20.01" y="248.57" width="210.65" height="30.66" transform="translate(211.59 16.97) rotate(45)"/><rect class="cls-2" x="94.46" y="-27.8" width="38.69" height="283.21" transform="translate(113.81 -47.14) rotate(45)"/><rect class="cls-3" x="155.5" y="33.24" width="38.69" height="283.21" transform="translate(174.85 -72.42) rotate(45)"/><rect class="cls-2" x="187.86" y="63.52" width="34.54" height="283.21" transform="translate(205.12 -84.97) rotate(45)"/><rect class="cls-2" x="127.06" y="2.72" width="34.54" height="283.21" transform="translate(144.33 -59.78) rotate(45)"/><rect class="cls-3" x="216.06" y="93.8" width="38.69" height="283.21" transform="translate(235.4 -97.51) rotate(45)"/><rect class="cls-1" x="754.37" y="665.78" width="210.65" height="30.66" transform="translate(733.41 -408.4) rotate(45)"/><rect class="cls-1" x="665.08" y="755.07" width="210.65" height="30.66" transform="translate(770.4 -319.11) rotate(45)"/><rect class="cls-1" x="575.79" y="844.36" width="210.65" height="30.66" transform="translate(807.39 -229.82) rotate(45)"/><rect class="cls-2" x="690.26" y="568" width="38.69" height="283.21" transform="translate(709.6 -293.93) rotate(45)"/><rect class="cls-2" x="751.3" y="629.04" width="38.69" height="283.21" transform="translate(770.64 -319.21) rotate(45)"/><rect class="cls-3" x="783.65" y="659.31" width="34.54" height="283.21" transform="translate(800.92 -331.75) rotate(45)"/><rect class="cls-3" x="722.85" y="598.52" width="34.54" height="283.21" transform="translate(740.12 -306.57) rotate(45)"/><rect class="cls-2" x="811.85" y="689.59" width="38.69" height="283.21" transform="translate(831.2 -344.29) rotate(45)"/><rect class="cls-1" x="1052.27" y="963.68" width="210.65" height="30.66" transform="translate(1031.31 -531.8) rotate(45)"/><rect class="cls-1" x="962.98" y="1052.97" width="210.65" height="30.66" transform="translate(1068.3 -442.5) rotate(45)"/><rect class="cls-1" x="873.68" y="1142.26" width="210.65" height="30.66" transform="translate(1105.28 -353.21) rotate(45)"/><rect class="cls-2" x="988.16" y="865.9" width="38.69" height="283.21" transform="translate(1007.5 -417.32) rotate(45)"/><rect class="cls-3" x="1049.2" y="926.94" width="38.69" height="283.21" transform="translate(1068.54 -442.6) rotate(45)"/><rect class="cls-2" x="1081.55" y="957.21" width="34.54" height="283.21" transform="translate(1098.82 -455.15) rotate(45)"/><rect class="cls-3" x="1020.75" y="896.42" width="34.54" height="283.21" transform="translate(1038.02 -429.96) rotate(45)"/><rect class="cls-3" x="1109.75" y="987.49" width="38.69" height="283.21" transform="translate(1129.1 -467.69) rotate(45)"/></g></g></svg>