<svg xmlns="http://www.w3.org/2000/svg" viewBox="0 0 876.88 139.29"><defs><style>.cls-1{fill:#ee312f;stroke:#861719;stroke-width:4.74px;}.cls-1,.cls-10,.cls-6,.cls-7,.cls-8,.cls-9{stroke-miterlimit:10;}.cls-2{fill:#231f20;opacity:0.15;}.cls-3,.cls-9{fill:#003c34;}.cls-10,.cls-4{fill:#d4d4d5;}.cls-5{fill:#a9a8a8;}.cls-6{fill:#fad386;}.cls-10,.cls-6,.cls-7,.cls-8,.cls-9{stroke:#fff;stroke-width:0.35px;}.cls-7{fill:#bfd5de;}.cls-8{fill:#0064a6;}.cls-10{opacity:0.32;}</style></defs><title>Asset 2</title><g id="Layer_2" data-name="Layer 2"><g id="Layer_1-2" data-name="Layer 1"><path class="cls-1" d="M659.19,136.91s87.94-4.25,105.16-5.92S874.51,87.12,874.51,69.3c0-15.42-92.94-60-110.15-61.7S659.19,2.4,659.19,2.4c-4.57,2.5-600.69,0-600.69,0V136.91Z"/><path class="cls-2" d="M659.19,136.91s87.94-4.25,105.16-5.92S874.51,87.12,874.51,69.3c0-15.42-92.94-60-110.15-61.7S659.19,2.4,659.19,2.4c-4.57,2.5-600.69,0-600.69,0V136.91Z"/><rect class="cls-3" x="799.58" y="41.4" width="1.69" height="15.25" transform="translate(849.45 -751.4) rotate(90)"/><rect class="cls-4" x="799.76" y="44.5" width="1.69" height="12.43" transform="translate(851.32 -749.89) rotate(90)"/><rect class="cls-4" x="799.76" y="46.62" width="1.69" height="12.43" transform="translate(853.44 -747.77) rotate(90)"/><rect class="cls-4" x="799.76" y="48.74" width="1.69" height="12.43" transform="translate(855.56 -745.65) rotate(90)"/><rect class="cls-4" x="799.76" y="50.86" width="1.69" height="12.43" transform="translate(857.68 -743.53) rotate(90)"/><rect class="cls-4" x="799.76" y="52.97" width="1.69" height="12.43" transform="translate(859.8 -741.42) rotate(90)"/><rect class="cls-4" x="799.76" y="55.09" width="1.69" height="12.43" transform="translate(861.91 -739.3) rotate(90)"/><rect class="cls-4" x="799.76" y="57.21" width="1.69" height="12.43" transform="translate(864.03 -737.18) rotate(90)"/><rect class="cls-4" x="799.76" y="59.33" width="1.69" height="12.43" transform="translate(866.15 -735.06) rotate(90)"/><rect class="cls-4" x="799.76" y="61.44" width="1.69" height="12.43" transform="translate(868.27 -732.94) rotate(90)"/><rect class="cls-4" x="799.76" y="63.56" width="1.69" height="12.43" transform="translate(870.39 -730.83) rotate(90)"/><rect class="cls-4" x="799.76" y="65.68" width="1.69" height="12.43" transform="translate(872.5 -728.71) rotate(90)"/><rect class="cls-4" x="799.76" y="67.8" width="1.69" height="12.43" transform="translate(874.62 -726.59) rotate(90)"/><rect class="cls-4" x="799.76" y="69.92" width="1.69" height="12.43" transform="translate(876.74 -724.47) rotate(90)"/><rect class="cls-4" x="799.76" y="72.03" width="1.69" height="12.43" transform="translate(878.86 -722.36) rotate(90)"/><rect class="cls-4" x="799.76" y="74.15" width="1.69" height="12.43" transform="translate(880.97 -720.24) rotate(90)"/><rect class="cls-4" x="799.76" y="76.27" width="1.69" height="12.43" transform="translate(883.09 -718.12) rotate(90)"/><rect class="cls-4" x="799.76" y="78.39" width="1.69" height="12.43" transform="translate(885.21 -716) rotate(90)"/><rect class="cls-5" x="794.62" y="49.64" width="1.69" height="2.16" transform="translate(846.19 -744.75) rotate(90)"/><rect class="cls-5" x="794.62" y="51.76" width="1.69" height="2.16" transform="translate(848.31 -742.63) rotate(90)"/><rect class="cls-5" x="794.62" y="53.87" width="1.69" height="2.16" transform="translate(850.42 -740.51) rotate(90)"/><rect class="cls-5" x="794.62" y="55.99" width="1.69" height="2.16" transform="translate(852.54 -738.4) rotate(90)"/><rect class="cls-5" x="794.62" y="58.11" width="1.69" height="2.16" transform="translate(854.66 -736.28) rotate(90)"/><rect class="cls-5" x="794.62" y="60.23" width="1.69" height="2.16" transform="translate(856.78 -734.16) rotate(90)"/><rect class="cls-5" x="794.62" y="62.35" width="1.69" height="2.16" transform="translate(858.9 -732.04) rotate(90)"/><rect class="cls-5" x="794.62" y="64.46" width="1.69" height="2.16" transform="translate(861.01 -729.93) rotate(90)"/><rect class="cls-5" x="794.62" y="66.58" width="1.69" height="2.16" transform="translate(863.13 -727.81) rotate(90)"/><rect class="cls-5" x="794.62" y="68.7" width="1.69" height="2.16" transform="translate(865.25 -725.69) rotate(90)"/><rect class="cls-5" x="794.62" y="70.82" width="1.69" height="2.16" transform="translate(867.37 -723.57) rotate(90)"/><rect class="cls-5" x="794.62" y="72.93" width="1.69" height="2.16" transform="translate(869.48 -721.45) rotate(90)"/><rect class="cls-5" x="794.62" y="75.05" width="1.69" height="2.16" transform="translate(871.6 -719.34) rotate(90)"/><rect class="cls-5" x="794.62" y="77.17" width="1.69" height="2.16" transform="translate(873.72 -717.22) rotate(90)"/><rect class="cls-5" x="794.62" y="79.29" width="1.69" height="2.16" transform="translate(875.84 -715.1) rotate(90)"/><rect class="cls-5" x="794.62" y="81.41" width="1.69" height="2.16" transform="translate(877.96 -712.98) rotate(90)"/><rect class="cls-5" x="794.62" y="83.52" width="1.69" height="2.16" transform="translate(880.07 -710.87) rotate(90)"/><rect class="cls-5" x="804.9" y="49.64" width="1.69" height="2.16" transform="translate(856.46 -755.02) rotate(90)"/><rect class="cls-5" x="804.9" y="51.76" width="1.69" height="2.16" transform="translate(858.58 -752.91) rotate(90)"/><rect class="cls-5" x="804.9" y="53.87" width="1.69" height="2.16" transform="translate(860.7 -750.79) rotate(90)"/><rect class="cls-5" x="804.9" y="55.99" width="1.69" height="2.16" transform="translate(862.81 -748.67) rotate(90)"/><rect class="cls-5" x="804.9" y="58.11" width="1.69" height="2.16" transform="translate(864.93 -746.55) rotate(90)"/><rect class="cls-5" x="804.9" y="60.23" width="1.69" height="2.16" transform="translate(867.05 -744.43) rotate(90)"/><rect class="cls-5" x="804.9" y="62.35" width="1.69" height="2.16" transform="translate(869.17 -742.32) rotate(90)"/><rect class="cls-5" x="804.9" y="64.46" width="1.69" height="2.16" transform="translate(871.29 -740.2) rotate(90)"/><rect class="cls-5" x="804.9" y="66.58" width="1.69" height="2.16" transform="translate(873.4 -738.08) rotate(90)"/><rect class="cls-5" x="804.9" y="68.7" width="1.69" height="2.16" transform="translate(875.52 -735.96) rotate(90)"/><rect class="cls-5" x="804.9" y="70.82" width="1.69" height="2.16" transform="translate(877.64 -733.85) rotate(90)"/><rect class="cls-5" x="804.9" y="72.93" width="1.69" height="2.16" transform="translate(879.76 -731.73) rotate(90)"/><rect class="cls-5" x="804.9" y="75.05" width="1.69" height="2.16" transform="translate(881.88 -729.61) rotate(90)"/><rect class="cls-5" x="804.9" y="77.17" width="1.69" height="2.16" transform="translate(883.99 -727.49) rotate(90)"/><rect class="cls-5" x="804.9" y="79.29" width="1.69" height="2.16" transform="translate(886.11 -725.37) rotate(90)"/><rect class="cls-5" x="804.9" y="81.41" width="1.69" height="2.16" transform="translate(888.23 -723.26) rotate(90)"/><rect class="cls-5" x="804.9" y="83.52" width="1.69" height="2.16" transform="translate(890.35 -721.14) rotate(90)"/><rect class="cls-3" x="799.58" y="79.01" width="1.69" height="15.25" transform="translate(887.06 -713.79) rotate(90)"/><rect class="cls-6" x="19.23" y="51.53" width="97.13" height="28.4" transform="translate(133.53 -2.06) rotate(90)"/><rect class="cls-6" x="-23.73" y="57.32" width="133.6" height="21.04" transform="translate(110.91 24.77) rotate(90)"/><polygon class="cls-7" points="47.98 100.62 26.07 100.46 0.29 74.68 0.29 56.79 26.07 31.01 47.98 30.84 62.36 38.56 62.36 92.91 47.98 100.62"/><rect class="cls-8" x="-24.63" y="60.28" width="129.44" height="13.68" transform="translate(107.21 27.02) rotate(90)"/><rect class="cls-6" x="21.24" y="11.65" width="4.56" height="15.6" transform="translate(42.97 -4.08) rotate(90)"/><rect class="cls-6" x="21.24" y="110.43" width="4.56" height="15.6" transform="translate(141.76 94.71) rotate(90)"/><rect class="cls-8" x="11.2" y="50.16" width="9.1" height="31.15" transform="translate(81.48 49.98) rotate(90)"/><rect class="cls-9" x="130.04" y="-12.64" width="18.94" height="49.79" transform="translate(151.76 -127.24) rotate(90)"/><rect class="cls-8" x="130.04" y="5.95" width="18.94" height="49.79" transform="translate(170.35 -108.66) rotate(90)"/><rect class="cls-6" x="130.04" y="24.53" width="18.94" height="49.79" transform="translate(188.93 -90.07) rotate(90)"/><rect class="cls-10" x="130.04" y="-13.43" width="18.94" height="49.79" transform="translate(150.97 -128.03) rotate(90)"/><rect class="cls-10" x="130.04" y="43.12" width="18.94" height="49.79" transform="translate(207.52 -71.49) rotate(90)"/><rect class="cls-8" x="130.04" y="61.7" width="18.94" height="49.79" transform="translate(226.1 -52.9) rotate(90)"/><rect class="cls-9" x="130.04" y="80.29" width="18.94" height="49.79" transform="translate(244.69 -34.32) rotate(90)"/><rect class="cls-10" x="130.04" y="98.87" width="18.94" height="49.79" transform="translate(263.27 -15.74) rotate(90)"/><rect class="cls-9" x="258.02" y="-12.64" width="18.94" height="49.79" transform="translate(279.75 -255.23) rotate(90)"/><rect class="cls-8" x="258.02" y="5.95" width="18.94" height="49.79" transform="translate(298.34 -236.65) rotate(90)"/><rect class="cls-6" x="258.02" y="24.53" width="18.94" height="49.79" transform="translate(316.92 -218.06) rotate(90)"/><rect class="cls-10" x="258.02" y="43.12" width="18.94" height="49.79" transform="translate(335.51 -199.48) rotate(90)"/><rect class="cls-9" x="258.02" y="61.7" width="18.94" height="49.79" transform="translate(354.09 -180.89) rotate(90)"/><rect class="cls-10" x="258.02" y="80.29" width="18.94" height="49.79" transform="translate(372.68 -162.31) rotate(90)"/><rect class="cls-9" x="258.02" y="98.87" width="18.94" height="49.79" transform="translate(391.26 -143.72) rotate(90)"/><rect class="cls-8" x="395.13" y="-37.37" width="18.94" height="99.26" transform="translate(416.86 -392.34) rotate(90)"/><rect class="cls-6" x="395.13" y="-18.79" width="18.94" height="99.26" transform="translate(435.45 -373.76) rotate(90)"/><rect class="cls-6" x="395.13" y="-0.2" width="18.94" height="99.26" transform="translate(454.03 -355.17) rotate(90)"/><rect class="cls-10" x="395.13" y="18.38" width="18.94" height="99.26" transform="translate(472.62 -336.59) rotate(90)"/><rect class="cls-8" x="395.13" y="36.97" width="18.94" height="99.26" transform="translate(491.2 -318) rotate(90)"/><rect class="cls-9" x="395.13" y="55.55" width="18.94" height="99.26" transform="translate(509.79 -299.42) rotate(90)"/><rect class="cls-8" x="395.13" y="74.14" width="18.94" height="99.26" transform="translate(528.37 -280.83) rotate(90)"/><rect class="cls-8" x="542.93" y="-12.64" width="18.94" height="49.79" transform="translate(564.65 -540.13) rotate(90)"/><rect class="cls-8" x="542.93" y="5.95" width="18.94" height="49.79" transform="translate(583.24 -521.55) rotate(90)"/><rect class="cls-8" x="542.93" y="24.53" width="18.94" height="49.79" transform="translate(601.82 -502.96) rotate(90)"/><rect class="cls-6" x="542.93" y="43.12" width="18.94" height="49.79" transform="translate(620.41 -484.38) rotate(90)"/><rect class="cls-6" x="542.93" y="61.7" width="18.94" height="49.79" transform="translate(638.99 -465.79) rotate(90)"/><rect class="cls-10" x="542.93" y="80.29" width="18.94" height="49.79" transform="translate(657.58 -447.21) rotate(90)"/><rect class="cls-9" x="542.93" y="98.87" width="18.94" height="49.79" transform="translate(676.16 -428.63) rotate(90)"/><rect class="cls-9" x="483.5" y="-12.64" width="18.94" height="49.79" transform="translate(505.22 -480.71) rotate(90)"/><rect class="cls-8" x="483.5" y="5.95" width="18.94" height="49.79" transform="translate(523.81 -462.12) rotate(90)"/><rect class="cls-6" x="483.5" y="24.53" width="18.94" height="49.79" transform="translate(542.39 -443.54) rotate(90)"/><rect class="cls-10" x="483.5" y="43.12" width="18.94" height="49.79" transform="translate(560.98 -424.95) rotate(90)"/><rect class="cls-6" x="483.5" y="61.7" width="18.94" height="49.79" transform="translate(579.56 -406.37) rotate(90)"/><rect class="cls-9" x="483.5" y="80.29" width="18.94" height="49.79" transform="translate(598.15 -387.78) rotate(90)"/><rect class="cls-8" x="483.5" y="98.87" width="18.94" height="49.79" transform="translate(616.73 -369.2) rotate(90)"/><rect class="cls-8" x="91.35" y="-3.9" width="9.33" height="24.55" transform="translate(104.4 -87.64) rotate(90)"/><rect class="cls-8" x="91.35" y="5.27" width="9.33" height="24.55" transform="translate(113.56 -78.48) rotate(90)"/><rect class="cls-7" x="91.35" y="14.43" width="9.33" height="24.55" transform="translate(122.72 -69.32) rotate(90)"/><rect class="cls-7" x="91.35" y="23.59" width="9.33" height="24.55" transform="translate(131.88 -60.16) rotate(90)"/><rect class="cls-7" x="91.35" y="32.75" width="9.33" height="24.55" transform="translate(141.04 -51) rotate(90)"/><rect class="cls-7" x="91.35" y="41.91" width="9.33" height="24.55" transform="translate(150.21 -41.84) rotate(90)"/><rect class="cls-7" x="91.35" y="51.07" width="9.33" height="24.55" transform="translate(159.37 -32.68) rotate(90)"/><rect class="cls-7" x="91.35" y="59.98" width="9.33" height="24.55" transform="translate(168.27 -23.77) rotate(90)"/><rect class="cls-7" x="91.35" y="69.14" width="9.33" height="24.55" transform="translate(177.43 -14.61) rotate(90)"/><rect class="cls-7" x="91.35" y="78.3" width="9.33" height="24.55" transform="translate(186.59 -5.45) rotate(90)"/><rect class="cls-7" x="91.35" y="87.46" width="9.33" height="24.55" transform="translate(195.76 3.71) rotate(90)"/><rect class="cls-7" x="91.35" y="96.62" width="9.33" height="24.55" transform="translate(204.92 12.87) rotate(90)"/><rect class="cls-8" x="91.35" y="105.78" width="9.33" height="24.55" transform="translate(214.08 22.04) rotate(90)"/><rect class="cls-8" x="91.35" y="114.95" width="9.33" height="24.55" transform="translate(223.24 31.2) rotate(90)"/><rect class="cls-9" x="315.05" y="-14.07" width="18.67" height="53.3" transform="translate(336.96 -311.8) rotate(90)"/><rect class="cls-9" x="315.05" y="4.26" width="18.67" height="53.3" transform="translate(355.29 -293.47) rotate(90)"/><rect class="cls-6" x="315.05" y="22.59" width="18.67" height="53.3" transform="translate(373.62 -275.15) rotate(90)"/><rect class="cls-8" x="315.05" y="40.92" width="18.67" height="53.3" transform="translate(391.95 -256.82) rotate(90)"/><rect class="cls-9" x="315.05" y="59.24" width="18.67" height="53.3" transform="translate(410.28 -238.49) rotate(90)"/><rect class="cls-10" x="315.05" y="77.57" width="18.67" height="53.3" transform="translate(428.6 -220.16) rotate(90)"/><rect class="cls-8" x="315.05" y="95.9" width="18.67" height="53.3" transform="translate(446.93 -201.83) rotate(90)"/><rect class="cls-9" x="661" y="98.87" width="18.94" height="49.79" transform="translate(546.7 794.23) rotate(-90)"/><rect class="cls-8" x="661" y="80.29" width="18.94" height="49.79" transform="translate(565.28 775.65) rotate(-90)"/><rect class="cls-6" x="661" y="61.7" width="18.94" height="49.79" transform="translate(583.87 757.06) rotate(-90)"/><rect class="cls-10" x="661" y="43.12" width="18.94" height="49.79" transform="translate(602.45 738.48) rotate(-90)"/><rect class="cls-9" x="661" y="24.53" width="18.94" height="49.79" transform="translate(621.04 719.89) rotate(-90)"/><rect class="cls-10" x="661" y="5.95" width="18.94" height="49.79" transform="translate(639.62 701.31) rotate(-90)"/><rect class="cls-9" x="661" y="-12.64" width="18.94" height="49.79" transform="translate(658.21 682.72) rotate(-90)"/><rect class="cls-9" x="604.24" y="96.79" width="18.67" height="53.3" transform="translate(490.13 737.02) rotate(-90)"/><rect class="cls-9" x="604.24" y="78.47" width="18.67" height="53.3" transform="translate(508.46 718.69) rotate(-90)"/><rect class="cls-6" x="604.24" y="60.14" width="18.67" height="53.3" transform="translate(526.79 700.36) rotate(-90)"/><rect class="cls-8" x="604.24" y="41.81" width="18.67" height="53.3" transform="translate(545.11 682.04) rotate(-90)"/><rect class="cls-9" x="604.24" y="23.48" width="18.67" height="53.3" transform="translate(563.44 663.71) rotate(-90)"/><rect class="cls-10" x="604.24" y="5.16" width="18.67" height="53.3" transform="translate(581.77 645.38) rotate(-90)"/><rect class="cls-8" x="604.24" y="-13.17" width="18.67" height="53.3" transform="translate(600.1 627.05) rotate(-90)"/></g></g></svg>