<svg xmlns="http://www.w3.org/2000/svg" viewBox="0 0 4156.98 656.1"><defs><style>.cls-1{fill:#a9a8a8;}.cls-2{fill:#d4d4d5;}.cls-3{fill:#ee312f;}.cls-4{fill:#231f20;opacity:0.15;}.cls-5{fill:#0064a6;stroke:#fff;stroke-width:0.26px;}.cls-5,.cls-6,.cls-9{stroke-miterlimit:10;}.cls-6{fill:#fff;stroke:#bfd5de;stroke-width:0.25px;}.cls-7{fill:#f3e0c8;}.cls-8{fill:#e1c9b6;}.cls-9{fill:none;stroke:#d4d4d5;}.cls-10{fill:#a28f7f;}</style></defs><title>Asset 1</title><g id="Layer_2" data-name="Layer 2"><g id="Layer_1-2" data-name="Layer 1"><rect class="cls-1" y="536.79" width="4156.98" height="119.31"/><rect class="cls-2" y="1.53" width="4156.98" height="535.26"/><rect class="cls-3" x="1466.59" y="218.64" width="1190.65" height="6.38"/><rect class="cls-4" x="1466.59" y="218.64" width="1190.65" height="6.38"/><rect class="cls-3" x="1466.59" y="314.41" width="1190.65" height="6.38"/><rect class="cls-4" x="1466.59" y="314.41" width="1190.65" height="6.38"/><rect class="cls-3" x="1466.59" y="410.17" width="1190.65" height="6.38"/><rect class="cls-4" x="1466.59" y="410.17" width="1190.65" height="6.38"/><rect class="cls-3" x="1466.59" y="505.93" width="1190.65" height="6.38"/><rect class="cls-4" x="1466.59" y="505.93" width="1190.65" height="6.38"/><rect class="cls-5" x="1466.59" y="187.31" width="9.58" height="349.48"/><rect class="cls-5" x="1860.28" y="187.31" width="9.58" height="349.48"/><rect class="cls-5" x="2253.97" y="187.31" width="9.58" height="349.48"/><rect class="cls-5" x="2647.66" y="187.31" width="9.58" height="349.48"/><rect class="cls-1" x="60.43" width="2.4" height="32.59"/><rect class="cls-1" x="240.68" width="2.4" height="32.59"/><polygon class="cls-6" points="272.7 32.59 25.52 32.59 15.58 50.55 282.64 50.55 272.7 32.59"/><rect class="cls-1" x="44.9" y="27.43" width="213.06" height="5.16"/><rect class="cls-1" x="611.13" width="2.4" height="32.59"/><rect class="cls-1" x="791.38" width="2.4" height="32.59"/><polygon class="cls-6" points="823.4 32.59 576.22 32.59 566.27 50.55 833.34 50.55 823.4 32.59"/><rect class="cls-1" x="595.6" y="27.43" width="213.06" height="5.16"/><rect class="cls-1" x="1161.82" width="2.4" height="32.59"/><rect class="cls-1" x="1342.08" width="2.4" height="32.59"/><polygon class="cls-6" points="1374.1 32.59 1126.91 32.59 1116.97 50.55 1384.04 50.55 1374.1 32.59"/><rect class="cls-1" x="1146.3" y="27.43" width="213.06" height="5.16"/><rect class="cls-1" x="1712.52" width="2.4" height="32.59"/><rect class="cls-1" x="1892.77" width="2.4" height="32.59"/><polygon class="cls-6" points="1924.79 32.59 1677.61 32.59 1667.67 50.55 1934.73 50.55 1924.79 32.59"/><rect class="cls-1" x="1696.99" y="27.43" width="213.06" height="5.16"/><rect class="cls-1" x="2281.63" width="2.4" height="32.59"/><rect class="cls-1" x="2461.89" width="2.4" height="32.59"/><polygon class="cls-6" points="2493.91 32.59 2246.72 32.59 2236.78 50.55 2503.85 50.55 2493.91 32.59"/><rect class="cls-1" x="2266.11" y="27.43" width="213.06" height="5.16"/><rect class="cls-1" x="2832.33" width="2.4" height="32.59"/><rect class="cls-1" x="3012.58" width="2.4" height="32.59"/><polygon class="cls-6" points="3044.6 32.59 2797.42 32.59 2787.48 50.55 3054.54 50.55 3044.6 32.59"/><rect class="cls-1" x="2816.8" y="27.43" width="213.06" height="5.16"/><rect class="cls-1" x="3383.03" width="2.4" height="32.59"/><rect class="cls-1" x="3563.28" width="2.4" height="32.59"/><polygon class="cls-6" points="3595.3 32.59 3348.12 32.59 3338.18 50.55 3605.24 50.55 3595.3 32.59"/><rect class="cls-1" x="3367.5" y="27.43" width="213.06" height="5.16"/><rect class="cls-1" x="3933.73" width="2.4" height="32.59"/><rect class="cls-1" x="4113.98" width="2.4" height="32.59"/><polygon class="cls-6" points="4146 32.59 3898.81 32.59 3888.87 50.55 4155.94 50.55 4146 32.59"/><rect class="cls-1" x="3918.2" y="27.43" width="213.06" height="5.16"/><rect class="cls-7" x="1482.4" y="451.79" width="105.56" height="54.14"/><rect class="cls-8" x="1533.07" y="451.79" width="8" height="16"/><path class="cls-1" d="M1502.62,489v-1.37h-11.77V489a5.89,5.89,0,0,0,5.17,5.84v5.73l-4.27,1.44h9.88l-4.27-1.44h0v-5.71A5.89,5.89,0,0,0,1502.62,489Zm-5.89,4.41a4.42,4.42,0,0,1-4.41-4.41h8.83A4.41,4.41,0,0,1,1496.73,493.45Z"/><rect class="cls-9" x="1487.23" y="485.13" width="19" height="19"/><rect class="cls-8" x="1604.86" y="451.79" width="73.12" height="54.14"/><rect class="cls-7" x="1637.57" y="451.79" width="8" height="16"/><polygon class="cls-1" points="1618.11 463.11 1618.11 458.79 1619.61 458.79 1616.11 455.29 1612.61 458.79 1614.11 458.79 1614.11 463.11 1618.11 463.11"/><rect class="cls-8" x="1686.61" y="451.79" width="73.12" height="54.14"/><rect class="cls-7" x="1719.32" y="451.79" width="8" height="16"/><polygon class="cls-1" points="1699.86 463.11 1699.86 458.79 1701.36 458.79 1697.86 455.29 1694.36 458.79 1695.86 458.79 1695.86 463.11 1699.86 463.11"/><rect class="cls-7" x="1880.93" y="259.27" width="105.56" height="54.14"/><rect class="cls-8" x="1931.6" y="259.27" width="8" height="16"/><path class="cls-1" d="M1901.15,296.51v-1.37h-11.77v1.37a5.89,5.89,0,0,0,5.17,5.84v5.73l-4.27,1.44h9.88l-4.27-1.44h0v-5.71A5.89,5.89,0,0,0,1901.15,296.51Zm-5.89,4.41a4.42,4.42,0,0,1-4.41-4.41h8.83A4.41,4.41,0,0,1,1895.26,300.93Z"/><rect class="cls-9" x="1885.77" y="292.6" width="19" height="19"/><rect class="cls-7" x="2047.11" y="355.53" width="105.56" height="54.14"/><rect class="cls-8" x="2097.78" y="355.53" width="8" height="16"/><path class="cls-1" d="M2067.33,392.78v-1.37h-11.77v1.37a5.89,5.89,0,0,0,5.17,5.84v5.73l-4.27,1.44h9.88l-4.27-1.44h0v-5.71A5.89,5.89,0,0,0,2067.33,392.78Zm-5.89,4.41a4.42,4.42,0,0,1-4.41-4.41h8.83A4.41,4.41,0,0,1,2061.44,397.19Z"/><rect class="cls-9" x="2051.94" y="388.86" width="19" height="19"/><rect class="cls-7" x="2018.16" y="451.4" width="105.56" height="54.14"/><rect class="cls-8" x="2068.83" y="451.4" width="8" height="16"/><path class="cls-1" d="M2038.38,488.65v-1.37h-11.77v1.37a5.89,5.89,0,0,0,5.17,5.84v5.73l-4.27,1.44h9.88l-4.27-1.44h0V494.5A5.89,5.89,0,0,0,2038.38,488.65Zm-5.89,4.41a4.42,4.42,0,0,1-4.41-4.41h8.83A4.41,4.41,0,0,1,2032.49,493.06Z"/><rect class="cls-9" x="2023" y="484.73" width="19" height="19"/><rect class="cls-7" x="2140.01" y="451.4" width="105.56" height="54.14"/><rect class="cls-8" x="2190.67" y="451.4" width="8" height="16"/><path class="cls-1" d="M2160.23,488.65v-1.37h-11.77v1.37a5.89,5.89,0,0,0,5.17,5.84v5.73l-4.27,1.44h9.88l-4.27-1.44h0V494.5A5.89,5.89,0,0,0,2160.23,488.65Zm-5.89,4.41a4.42,4.42,0,0,1-4.41-4.41h8.83A4.41,4.41,0,0,1,2154.34,493.06Z"/><rect class="cls-9" x="2144.84" y="484.73" width="19" height="19"/><rect class="cls-8" x="2003.39" y="259.27" width="73.12" height="54.14"/><rect class="cls-7" x="2036.1" y="259.27" width="8" height="16"/><polygon class="cls-1" points="2016.64 270.58 2016.64 266.27 2018.14 266.27 2014.64 262.77 2011.14 266.27 2012.64 266.27 2012.64 270.58 2016.64 270.58"/><rect class="cls-8" x="2085.14" y="259.27" width="73.12" height="54.14"/><rect class="cls-7" x="2117.85" y="259.27" width="8" height="16"/><polygon class="cls-1" points="2098.39 270.58 2098.39 266.27 2099.89 266.27 2096.39 262.77 2092.89 266.27 2094.39 266.27 2094.39 270.58 2098.39 270.58"/><rect class="cls-8" x="1880.93" y="355.53" width="73.12" height="54.14"/><rect class="cls-7" x="1913.64" y="355.53" width="8" height="16"/><polygon class="cls-1" points="1894.18 366.84 1894.18 362.53 1895.68 362.53 1892.18 359.03 1888.68 362.53 1890.18 362.53 1890.18 366.84 1894.18 366.84"/><rect class="cls-8" x="1962.68" y="355.53" width="73.12" height="54.14"/><rect class="cls-7" x="1995.39" y="355.53" width="8" height="16"/><polygon class="cls-1" points="1975.93 366.84 1975.93 362.53 1977.43 362.53 1973.93 359.03 1970.43 362.53 1971.93 362.53 1971.93 366.84 1975.93 366.84"/><rect class="cls-7" x="1745.78" y="355.53" width="105.56" height="54.14"/><rect class="cls-8" x="1796.44" y="355.53" width="8" height="16"/><path class="cls-1" d="M1766,392.78v-1.37h-11.77v1.37a5.89,5.89,0,0,0,5.17,5.84v5.73l-4.27,1.44H1765l-4.27-1.44h0v-5.71A5.89,5.89,0,0,0,1766,392.78Zm-5.89,4.41a4.42,4.42,0,0,1-4.41-4.41h8.83A4.41,4.41,0,0,1,1760.11,397.19Z"/><rect class="cls-9" x="1750.61" y="388.86" width="19" height="19"/><rect class="cls-7" x="1608.92" y="355.53" width="105.56" height="54.14"/><rect class="cls-8" x="1659.59" y="355.53" width="8" height="16"/><path class="cls-1" d="M1629.14,392.78v-1.37h-11.77v1.37a5.89,5.89,0,0,0,5.17,5.84v5.73l-4.27,1.44h9.88l-4.27-1.44h0v-5.71A5.89,5.89,0,0,0,1629.14,392.78Zm-5.89,4.41a4.42,4.42,0,0,1-4.41-4.41h8.83A4.41,4.41,0,0,1,1623.25,397.19Z"/><rect class="cls-9" x="1613.76" y="388.86" width="19" height="19"/><rect class="cls-8" x="1504.51" y="355.53" width="73.12" height="54.14"/><rect class="cls-7" x="1537.21" y="355.53" width="8" height="16"/><polygon class="cls-1" points="1517.75 366.84 1517.75 362.53 1519.25 362.53 1515.75 359.03 1512.25 362.53 1513.75 362.53 1513.75 366.84 1517.75 366.84"/><rect class="cls-10" x="2564.64" y="367.34" width="74.85" height="42.83"/><rect class="cls-7" x="2274.86" y="355.03" width="105.56" height="54.14"/><rect class="cls-8" x="2325.52" y="355.03" width="8" height="16"/><path class="cls-1" d="M2295.08,392.28v-1.37H2283.3v1.37a5.89,5.89,0,0,0,5.17,5.84v5.73l-4.27,1.44h9.88l-4.27-1.44h0v-5.71A5.89,5.89,0,0,0,2295.08,392.28Zm-5.89,4.41a4.42,4.42,0,0,1-4.41-4.41h8.83A4.41,4.41,0,0,1,2289.19,396.69Z"/><rect class="cls-9" x="2279.69" y="388.36" width="19" height="19"/><rect class="cls-8" x="2397.32" y="355.03" width="73.12" height="54.14"/><rect class="cls-7" x="2430.03" y="355.03" width="8" height="16"/><polygon class="cls-1" points="2410.57 366.34 2410.57 362.03 2412.07 362.03 2408.57 358.53 2405.07 362.03 2406.57 362.03 2406.57 366.34 2410.57 366.34"/><rect class="cls-8" x="2479.07" y="355.03" width="73.12" height="54.14"/><rect class="cls-7" x="2511.78" y="355.03" width="8" height="16"/><polygon class="cls-1" points="2492.32 366.34 2492.32 362.03 2493.82 362.03 2490.32 358.53 2486.82 362.03 2488.32 362.03 2488.32 366.34 2492.32 366.34"/><rect class="cls-10" x="2170.72" y="271.58" width="74.85" height="42.83"/><rect class="cls-8" x="2204.14" y="271.58" width="8" height="12.66"/><rect class="cls-10" x="2170.72" y="366.95" width="74.85" height="42.83"/><rect class="cls-8" x="2204.14" y="366.95" width="8" height="12.66"/><rect class="cls-7" x="2439.62" y="451.74" width="105.56" height="54.14"/><rect class="cls-8" x="2490.29" y="451.74" width="8" height="16"/><path class="cls-1" d="M2459.84,489v-1.37h-11.77V489a5.89,5.89,0,0,0,5.17,5.84v5.73L2449,502h9.88l-4.27-1.44h0v-5.71A5.89,5.89,0,0,0,2459.84,489ZM2454,493.4a4.42,4.42,0,0,1-4.41-4.41h8.83A4.41,4.41,0,0,1,2454,493.4Z"/><rect class="cls-9" x="2444.45" y="485.07" width="19" height="19"/><rect class="cls-8" x="2273.44" y="451.74" width="73.12" height="54.14"/><rect class="cls-7" x="2306.15" y="451.74" width="8" height="16"/><polygon class="cls-1" points="2286.69 463.05 2286.69 458.74 2288.19 458.74 2284.69 455.24 2281.19 458.74 2282.69 458.74 2282.69 463.05 2286.69 463.05"/><rect class="cls-8" x="2355.19" y="451.74" width="73.12" height="54.14"/><rect class="cls-7" x="2387.9" y="451.74" width="8" height="16"/><polygon class="cls-1" points="2368.44 463.05 2368.44 458.74 2369.94 458.74 2366.44 455.24 2362.94 458.74 2364.44 458.74 2364.44 463.05 2368.44 463.05"/><rect class="cls-10" x="2563.23" y="463.16" width="74.85" height="42.83"/><rect class="cls-8" x="2596.65" y="463.16" width="8" height="12.66"/><rect class="cls-7" x="1653.41" y="259.21" width="105.56" height="54.14"/><rect class="cls-8" x="1704.08" y="259.21" width="8" height="16"/><path class="cls-1" d="M1673.63,296.46v-1.37h-11.77v1.37a5.89,5.89,0,0,0,5.17,5.84V308l-4.27,1.44h9.88l-4.27-1.44h0v-5.71A5.89,5.89,0,0,0,1673.63,296.46Zm-5.89,4.41a4.42,4.42,0,0,1-4.41-4.41h8.83A4.41,4.41,0,0,1,1667.74,300.87Z"/><rect class="cls-9" x="1658.25" y="292.55" width="19" height="19"/><rect class="cls-8" x="1487.23" y="259.21" width="73.12" height="54.14"/><rect class="cls-7" x="1519.94" y="259.21" width="8" height="16"/><polygon class="cls-1" points="1500.48 270.53 1500.48 266.21 1501.98 266.21 1498.48 262.71 1494.98 266.21 1496.48 266.21 1496.48 270.53 1500.48 270.53"/><rect class="cls-8" x="1568.98" y="259.21" width="73.12" height="54.14"/><rect class="cls-7" x="1601.69" y="259.21" width="8" height="16"/><polygon class="cls-1" points="1582.23 270.53 1582.23 266.21 1583.73 266.21 1580.23 262.71 1576.73 266.21 1578.23 266.21 1578.23 270.53 1582.23 270.53"/><rect class="cls-10" x="1777.02" y="270.63" width="74.85" height="42.83"/><rect class="cls-8" x="1810.45" y="270.63" width="8" height="12.66"/><rect class="cls-7" x="2371.5" y="260.21" width="105.56" height="54.14" transform="translate(4848.55 574.56) rotate(180)"/><rect class="cls-8" x="2418.39" y="260.21" width="8" height="16" transform="translate(4844.78 536.43) rotate(180)"/><path class="cls-1" d="M2462.11,303.31V309h0l-4.27,1.44h9.88l-4.27-1.44V303.3a5.89,5.89,0,0,0,5.17-5.84v-1.37h-11.77v1.37A5.89,5.89,0,0,0,2462.11,303.31Zm-3.8-5.86h8.83a4.41,4.41,0,0,1-8.83,0Z"/><rect class="cls-9" x="2453.22" y="293.55" width="19" height="19" transform="translate(4925.45 606.09) rotate(180)"/><rect class="cls-8" x="2570.11" y="260.21" width="73.12" height="54.14" transform="translate(5213.35 574.56) rotate(180)"/><rect class="cls-7" x="2602.53" y="260.21" width="8" height="16" transform="translate(5213.06 536.43) rotate(180)"/><polygon class="cls-1" points="2629.99 271.53 2629.99 267.21 2628.49 267.21 2631.99 263.71 2635.49 267.21 2633.99 267.21 2633.99 271.53 2629.99 271.53"/><rect class="cls-8" x="2488.36" y="260.21" width="73.12" height="54.14" transform="translate(5049.85 574.56) rotate(180)"/><rect class="cls-7" x="2520.78" y="260.21" width="8" height="16" transform="translate(5049.56 536.43) rotate(180)"/><polygon class="cls-1" points="2548.24 271.53 2548.24 267.21 2546.74 267.21 2550.24 263.71 2553.74 267.21 2552.24 267.21 2552.24 271.53 2548.24 271.53"/><rect class="cls-10" x="2278.6" y="271.63" width="74.85" height="42.83" transform="translate(4632.05 586.09) rotate(180)"/><rect class="cls-8" x="2312.02" y="271.63" width="8" height="12.66" transform="translate(4632.05 555.93) rotate(180)"/><rect class="cls-10" x="1902.17" y="462.71" width="74.85" height="42.83"/><rect class="cls-8" x="1935.6" y="462.71" width="8" height="12.66"/><rect class="cls-10" x="1772.19" y="463.11" width="74.85" height="42.83"/><rect class="cls-8" x="1805.61" y="463.11" width="8" height="12.66"/><rect class="cls-8" x="2598.07" y="367.7" width="8" height="12.66"/><rect class="cls-3" x="95.59" y="218.64" width="1190.65" height="6.38"/><rect class="cls-4" x="95.59" y="218.64" width="1190.65" height="6.38"/><rect class="cls-3" x="95.59" y="314.41" width="1190.65" height="6.38"/><rect class="cls-4" x="95.59" y="314.41" width="1190.65" height="6.38"/><rect class="cls-3" x="95.59" y="410.17" width="1190.65" height="6.38"/><rect class="cls-4" x="95.59" y="410.17" width="1190.65" height="6.38"/><rect class="cls-3" x="95.59" y="505.93" width="1190.65" height="6.38"/><rect class="cls-4" x="95.59" y="505.93" width="1190.65" height="6.38"/><rect class="cls-5" x="95.59" y="187.31" width="9.58" height="349.48"/><rect class="cls-5" x="489.28" y="187.31" width="9.58" height="349.48"/><rect class="cls-5" x="882.97" y="187.31" width="9.58" height="349.48"/><rect class="cls-5" x="1276.66" y="187.31" width="9.58" height="349.48"/><rect class="cls-7" x="111.4" y="451.79" width="105.56" height="54.14"/><rect class="cls-8" x="162.07" y="451.79" width="8" height="16"/><path class="cls-1" d="M131.62,489v-1.37H119.85V489a5.89,5.89,0,0,0,5.17,5.84v5.73L120.75,502h9.88l-4.27-1.44h0v-5.71A5.89,5.89,0,0,0,131.62,489Zm-5.89,4.41a4.42,4.42,0,0,1-4.41-4.41h8.83A4.41,4.41,0,0,1,125.73,493.45Z"/><rect class="cls-9" x="116.23" y="485.13" width="19" height="19"/><rect class="cls-8" x="233.86" y="451.79" width="73.12" height="54.14"/><rect class="cls-7" x="266.57" y="451.79" width="8" height="16"/><polygon class="cls-1" points="247.11 463.11 247.11 458.79 248.61 458.79 245.11 455.29 241.61 458.79 243.11 458.79 243.11 463.11 247.11 463.11"/><rect class="cls-8" x="315.61" y="451.79" width="73.12" height="54.14"/><rect class="cls-7" x="348.32" y="451.79" width="8" height="16"/><polygon class="cls-1" points="328.86 463.11 328.86 458.79 330.36 458.79 326.86 455.29 323.36 458.79 324.86 458.79 324.86 463.11 328.86 463.11"/><rect class="cls-7" x="509.93" y="259.27" width="105.56" height="54.14"/><rect class="cls-8" x="560.6" y="259.27" width="8" height="16"/><path class="cls-1" d="M530.15,296.51v-1.37H518.38v1.37a5.89,5.89,0,0,0,5.17,5.84v5.73l-4.27,1.44h9.88l-4.27-1.44h0v-5.71A5.89,5.89,0,0,0,530.15,296.51Zm-5.89,4.41a4.42,4.42,0,0,1-4.41-4.41h8.83A4.41,4.41,0,0,1,524.26,300.93Z"/><rect class="cls-9" x="514.77" y="292.6" width="19" height="19"/><rect class="cls-7" x="676.11" y="355.53" width="105.56" height="54.14"/><rect class="cls-8" x="726.78" y="355.53" width="8" height="16"/><path class="cls-1" d="M696.33,392.78v-1.37H684.56v1.37a5.89,5.89,0,0,0,5.17,5.84v5.73l-4.27,1.44h9.88l-4.27-1.44h0v-5.71A5.89,5.89,0,0,0,696.33,392.78Zm-5.89,4.41a4.42,4.42,0,0,1-4.41-4.41h8.83A4.41,4.41,0,0,1,690.44,397.19Z"/><rect class="cls-9" x="680.94" y="388.86" width="19" height="19"/><rect class="cls-7" x="647.16" y="451.4" width="105.56" height="54.14"/><rect class="cls-8" x="697.83" y="451.4" width="8" height="16"/><path class="cls-1" d="M667.38,488.65v-1.37H655.61v1.37a5.89,5.89,0,0,0,5.17,5.84v5.73l-4.27,1.44h9.88l-4.27-1.44h0V494.5A5.89,5.89,0,0,0,667.38,488.65Zm-5.89,4.41a4.42,4.42,0,0,1-4.41-4.41h8.83A4.41,4.41,0,0,1,661.49,493.06Z"/><rect class="cls-9" x="652" y="484.73" width="19" height="19"/><rect class="cls-7" x="769.01" y="451.4" width="105.56" height="54.14"/><rect class="cls-8" x="819.67" y="451.4" width="8" height="16"/><path class="cls-1" d="M789.23,488.65v-1.37H777.45v1.37a5.89,5.89,0,0,0,5.17,5.84v5.73l-4.27,1.44h9.88L784,500.21h0V494.5A5.89,5.89,0,0,0,789.23,488.65Zm-5.89,4.41a4.42,4.42,0,0,1-4.41-4.41h8.83A4.41,4.41,0,0,1,783.34,493.06Z"/><rect class="cls-9" x="773.84" y="484.73" width="19" height="19"/><rect class="cls-8" x="632.39" y="259.27" width="73.12" height="54.14"/><rect class="cls-7" x="665.1" y="259.27" width="8" height="16"/><polygon class="cls-1" points="645.64 270.58 645.64 266.27 647.14 266.27 643.64 262.77 640.14 266.27 641.64 266.27 641.64 270.58 645.64 270.58"/><rect class="cls-8" x="714.14" y="259.27" width="73.12" height="54.14"/><rect class="cls-7" x="746.85" y="259.27" width="8" height="16"/><polygon class="cls-1" points="727.39 270.58 727.39 266.27 728.89 266.27 725.39 262.77 721.89 266.27 723.39 266.27 723.39 270.58 727.39 270.58"/><rect class="cls-8" x="509.93" y="355.53" width="73.12" height="54.14"/><rect class="cls-7" x="542.64" y="355.53" width="8" height="16"/><polygon class="cls-1" points="523.18 366.84 523.18 362.53 524.68 362.53 521.18 359.03 517.68 362.53 519.18 362.53 519.18 366.84 523.18 366.84"/><rect class="cls-8" x="591.68" y="355.53" width="73.12" height="54.14"/><rect class="cls-7" x="624.39" y="355.53" width="8" height="16"/><polygon class="cls-1" points="604.93 366.84 604.93 362.53 606.43 362.53 602.93 359.03 599.43 362.53 600.93 362.53 600.93 366.84 604.93 366.84"/><rect class="cls-7" x="374.78" y="355.53" width="105.56" height="54.14"/><rect class="cls-8" x="425.44" y="355.53" width="8" height="16"/><path class="cls-1" d="M395,392.78v-1.37H383.22v1.37a5.89,5.89,0,0,0,5.17,5.84v5.73l-4.27,1.44H394l-4.27-1.44h0v-5.71A5.89,5.89,0,0,0,395,392.78Zm-5.89,4.41a4.42,4.42,0,0,1-4.41-4.41h8.83A4.41,4.41,0,0,1,389.11,397.19Z"/><rect class="cls-9" x="379.61" y="388.86" width="19" height="19"/><rect class="cls-7" x="237.92" y="355.53" width="105.56" height="54.14"/><rect class="cls-8" x="288.59" y="355.53" width="8" height="16"/><path class="cls-1" d="M258.14,392.78v-1.37H246.37v1.37a5.89,5.89,0,0,0,5.17,5.84v5.73l-4.27,1.44h9.88l-4.27-1.44h0v-5.71A5.89,5.89,0,0,0,258.14,392.78Zm-5.89,4.41a4.42,4.42,0,0,1-4.41-4.41h8.83A4.41,4.41,0,0,1,252.25,397.19Z"/><rect class="cls-9" x="242.76" y="388.86" width="19" height="19"/><rect class="cls-8" x="133.51" y="355.53" width="73.12" height="54.14"/><rect class="cls-7" x="166.21" y="355.53" width="8" height="16"/><polygon class="cls-1" points="146.75 366.84 146.75 362.53 148.25 362.53 144.75 359.03 141.25 362.53 142.75 362.53 142.75 366.84 146.75 366.84"/><rect class="cls-10" x="1193.64" y="367.34" width="74.85" height="42.83"/><rect class="cls-7" x="903.86" y="355.03" width="105.56" height="54.14"/><rect class="cls-8" x="954.52" y="355.03" width="8" height="16"/><path class="cls-1" d="M924.08,392.28v-1.37H912.3v1.37a5.89,5.89,0,0,0,5.17,5.84v5.73l-4.27,1.44h9.88l-4.27-1.44h0v-5.71A5.89,5.89,0,0,0,924.08,392.28Zm-5.89,4.41a4.42,4.42,0,0,1-4.41-4.41h8.83A4.41,4.41,0,0,1,918.19,396.69Z"/><rect class="cls-9" x="908.69" y="388.36" width="19" height="19"/><rect class="cls-8" x="1026.32" y="355.03" width="73.12" height="54.14"/><rect class="cls-7" x="1059.03" y="355.03" width="8" height="16"/><polygon class="cls-1" points="1039.57 366.34 1039.57 362.03 1041.07 362.03 1037.57 358.53 1034.07 362.03 1035.57 362.03 1035.57 366.34 1039.57 366.34"/><rect class="cls-8" x="1108.07" y="355.03" width="73.12" height="54.14"/><rect class="cls-7" x="1140.78" y="355.03" width="8" height="16"/><polygon class="cls-1" points="1121.32 366.34 1121.32 362.03 1122.82 362.03 1119.32 358.53 1115.82 362.03 1117.32 362.03 1117.32 366.34 1121.32 366.34"/><rect class="cls-10" x="799.72" y="271.58" width="74.85" height="42.83"/><rect class="cls-8" x="833.14" y="271.58" width="8" height="12.66"/><rect class="cls-10" x="799.72" y="366.95" width="74.85" height="42.83"/><rect class="cls-8" x="833.14" y="366.95" width="8" height="12.66"/><rect class="cls-7" x="1068.62" y="451.74" width="105.56" height="54.14"/><rect class="cls-8" x="1119.29" y="451.74" width="8" height="16"/><path class="cls-1" d="M1088.84,489v-1.37h-11.77V489a5.89,5.89,0,0,0,5.17,5.84v5.73L1078,502h9.88l-4.27-1.44h0v-5.71A5.89,5.89,0,0,0,1088.84,489ZM1083,493.4a4.42,4.42,0,0,1-4.41-4.41h8.83A4.41,4.41,0,0,1,1083,493.4Z"/><rect class="cls-9" x="1073.45" y="485.07" width="19" height="19"/><rect class="cls-8" x="902.44" y="451.74" width="73.12" height="54.14"/><rect class="cls-7" x="935.15" y="451.74" width="8" height="16"/><polygon class="cls-1" points="915.69 463.05 915.69 458.74 917.19 458.74 913.69 455.24 910.19 458.74 911.69 458.74 911.69 463.05 915.69 463.05"/><rect class="cls-8" x="984.19" y="451.74" width="73.12" height="54.14"/><rect class="cls-7" x="1016.9" y="451.74" width="8" height="16"/><polygon class="cls-1" points="997.44 463.05 997.44 458.74 998.94 458.74 995.44 455.24 991.94 458.74 993.44 458.74 993.44 463.05 997.44 463.05"/><rect class="cls-10" x="1192.23" y="463.16" width="74.85" height="42.83"/><rect class="cls-8" x="1225.65" y="463.16" width="8" height="12.66"/><rect class="cls-7" x="282.41" y="259.21" width="105.56" height="54.14"/><rect class="cls-8" x="333.08" y="259.21" width="8" height="16"/><path class="cls-1" d="M302.63,296.46v-1.37H290.86v1.37A5.89,5.89,0,0,0,296,302.3V308l-4.27,1.44h9.88L297.36,308h0v-5.71A5.89,5.89,0,0,0,302.63,296.46Zm-5.89,4.41a4.42,4.42,0,0,1-4.41-4.41h8.83A4.41,4.41,0,0,1,296.74,300.87Z"/><rect class="cls-9" x="287.25" y="292.55" width="19" height="19"/><rect class="cls-8" x="116.23" y="259.21" width="73.12" height="54.14"/><rect class="cls-7" x="148.94" y="259.21" width="8" height="16"/><polygon class="cls-1" points="129.48 270.53 129.48 266.21 130.98 266.21 127.48 262.71 123.98 266.21 125.48 266.21 125.48 270.53 129.48 270.53"/><rect class="cls-8" x="197.98" y="259.21" width="73.12" height="54.14"/><rect class="cls-7" x="230.69" y="259.21" width="8" height="16"/><polygon class="cls-1" points="211.23 270.53 211.23 266.21 212.73 266.21 209.23 262.71 205.73 266.21 207.23 266.21 207.23 270.53 211.23 270.53"/><rect class="cls-10" x="406.02" y="270.63" width="74.85" height="42.83"/><rect class="cls-8" x="439.45" y="270.63" width="8" height="12.66"/><rect class="cls-7" x="1000.5" y="260.21" width="105.56" height="54.14" transform="translate(2106.55 574.56) rotate(180)"/><rect class="cls-8" x="1047.39" y="260.21" width="8" height="16" transform="translate(2102.78 536.43) rotate(180)"/><path class="cls-1" d="M1091.11,303.31V309h0l-4.27,1.44h9.88l-4.27-1.44V303.3a5.89,5.89,0,0,0,5.17-5.84v-1.37h-11.77v1.37A5.89,5.89,0,0,0,1091.11,303.31Zm-3.8-5.86h8.83a4.41,4.41,0,1,1-8.83,0Z"/><rect class="cls-9" x="1082.22" y="293.55" width="19" height="19" transform="translate(2183.45 606.09) rotate(180)"/><rect class="cls-8" x="1199.11" y="260.21" width="73.12" height="54.14" transform="translate(2471.35 574.56) rotate(180)"/><rect class="cls-7" x="1231.53" y="260.21" width="8" height="16" transform="translate(2471.06 536.43) rotate(180)"/><polygon class="cls-1" points="1258.99 271.53 1258.99 267.21 1257.49 267.21 1260.99 263.71 1264.49 267.21 1262.99 267.21 1262.99 271.53 1258.99 271.53"/><rect class="cls-8" x="1117.36" y="260.21" width="73.12" height="54.14" transform="translate(2307.85 574.56) rotate(180)"/><rect class="cls-7" x="1149.78" y="260.21" width="8" height="16" transform="translate(2307.56 536.43) rotate(180)"/><polygon class="cls-1" points="1177.24 271.53 1177.24 267.21 1175.74 267.21 1179.24 263.71 1182.74 267.21 1181.24 267.21 1181.24 271.53 1177.24 271.53"/><rect class="cls-10" x="907.6" y="271.63" width="74.85" height="42.83" transform="translate(1890.05 586.09) rotate(180)"/><rect class="cls-8" x="941.02" y="271.63" width="8" height="12.66" transform="translate(1890.05 555.93) rotate(180)"/><rect class="cls-10" x="531.17" y="462.71" width="74.85" height="42.83"/><rect class="cls-8" x="564.6" y="462.71" width="8" height="12.66"/><rect class="cls-10" x="401.19" y="463.11" width="74.85" height="42.83"/><rect class="cls-8" x="434.61" y="463.11" width="8" height="12.66"/><rect class="cls-8" x="1227.07" y="367.7" width="8" height="12.66"/><rect class="cls-3" x="2858.39" y="218.64" width="1190.65" height="6.38"/><rect class="cls-4" x="2858.39" y="218.64" width="1190.65" height="6.38"/><rect class="cls-3" x="2858.39" y="314.41" width="1190.65" height="6.38"/><rect class="cls-4" x="2858.39" y="314.41" width="1190.65" height="6.38"/><rect class="cls-3" x="2858.39" y="410.17" width="1190.65" height="6.38"/><rect class="cls-4" x="2858.39" y="410.17" width="1190.65" height="6.38"/><rect class="cls-3" x="2858.39" y="505.93" width="1190.65" height="6.38"/><rect class="cls-4" x="2858.39" y="505.93" width="1190.65" height="6.38"/><rect class="cls-5" x="2858.39" y="187.31" width="9.58" height="349.48"/><rect class="cls-5" x="3252.08" y="187.31" width="9.58" height="349.48"/><rect class="cls-5" x="3645.77" y="187.31" width="9.58" height="349.48"/><rect class="cls-5" x="4039.46" y="187.31" width="9.58" height="349.48"/><rect class="cls-7" x="2874.2" y="451.79" width="105.56" height="54.14"/><rect class="cls-8" x="2924.87" y="451.79" width="8" height="16"/><path class="cls-1" d="M2894.42,489v-1.37h-11.77V489a5.89,5.89,0,0,0,5.17,5.84v5.73l-4.27,1.44h9.88l-4.27-1.44h0v-5.71A5.89,5.89,0,0,0,2894.42,489Zm-5.89,4.41a4.42,4.42,0,0,1-4.41-4.41h8.83A4.41,4.41,0,0,1,2888.53,493.45Z"/><rect class="cls-9" x="2879.03" y="485.13" width="19" height="19"/><rect class="cls-8" x="2996.66" y="451.79" width="73.12" height="54.14"/><rect class="cls-7" x="3029.37" y="451.79" width="8" height="16"/><polygon class="cls-1" points="3009.91 463.11 3009.91 458.79 3011.41 458.79 3007.91 455.29 3004.41 458.79 3005.91 458.79 3005.91 463.11 3009.91 463.11"/><rect class="cls-8" x="3078.41" y="451.79" width="73.12" height="54.14"/><rect class="cls-7" x="3111.12" y="451.79" width="8" height="16"/><polygon class="cls-1" points="3091.66 463.11 3091.66 458.79 3093.16 458.79 3089.66 455.29 3086.16 458.79 3087.66 458.79 3087.66 463.11 3091.66 463.11"/><rect class="cls-7" x="3272.73" y="259.27" width="105.56" height="54.14"/><rect class="cls-8" x="3323.4" y="259.27" width="8" height="16"/><path class="cls-1" d="M3293,296.51v-1.37h-11.77v1.37a5.89,5.89,0,0,0,5.17,5.84v5.73l-4.27,1.44H3292l-4.27-1.44h0v-5.71A5.89,5.89,0,0,0,3293,296.51Zm-5.89,4.41a4.42,4.42,0,0,1-4.41-4.41h8.83A4.41,4.41,0,0,1,3287.06,300.93Z"/><rect class="cls-9" x="3277.56" y="292.6" width="19" height="19"/><rect class="cls-7" x="3438.91" y="355.53" width="105.56" height="54.14"/><rect class="cls-8" x="3489.58" y="355.53" width="8" height="16"/><path class="cls-1" d="M3459.13,392.78v-1.37h-11.77v1.37a5.89,5.89,0,0,0,5.17,5.84v5.73l-4.27,1.44h9.88l-4.27-1.44h0v-5.71A5.89,5.89,0,0,0,3459.13,392.78Zm-5.89,4.41a4.42,4.42,0,0,1-4.41-4.41h8.83A4.41,4.41,0,0,1,3453.24,397.19Z"/><rect class="cls-9" x="3443.74" y="388.86" width="19" height="19"/><rect class="cls-7" x="3409.96" y="451.4" width="105.56" height="54.14"/><rect class="cls-8" x="3460.63" y="451.4" width="8" height="16"/><path class="cls-1" d="M3430.18,488.65v-1.37h-11.77v1.37a5.89,5.89,0,0,0,5.17,5.84v5.73l-4.27,1.44h9.88l-4.27-1.44h0V494.5A5.89,5.89,0,0,0,3430.18,488.65Zm-5.89,4.41a4.42,4.42,0,0,1-4.41-4.41h8.83A4.41,4.41,0,0,1,3424.29,493.06Z"/><rect class="cls-9" x="3414.8" y="484.73" width="19" height="19"/><rect class="cls-7" x="3531.81" y="451.4" width="105.56" height="54.14"/><rect class="cls-8" x="3582.47" y="451.4" width="8" height="16"/><path class="cls-1" d="M3552,488.65v-1.37h-11.77v1.37a5.89,5.89,0,0,0,5.17,5.84v5.73l-4.27,1.44H3551l-4.27-1.44h0V494.5A5.89,5.89,0,0,0,3552,488.65Zm-5.89,4.41a4.42,4.42,0,0,1-4.41-4.41h8.83A4.41,4.41,0,0,1,3546.14,493.06Z"/><rect class="cls-9" x="3536.64" y="484.73" width="19" height="19"/><rect class="cls-8" x="3395.19" y="259.27" width="73.12" height="54.14"/><rect class="cls-7" x="3427.9" y="259.27" width="8" height="16"/><polygon class="cls-1" points="3408.44 270.58 3408.44 266.27 3409.94 266.27 3406.44 262.77 3402.94 266.27 3404.44 266.27 3404.44 270.58 3408.44 270.58"/><rect class="cls-8" x="3476.94" y="259.27" width="73.12" height="54.14"/><rect class="cls-7" x="3509.65" y="259.27" width="8" height="16"/><polygon class="cls-1" points="3490.19 270.58 3490.19 266.27 3491.69 266.27 3488.19 262.77 3484.69 266.27 3486.19 266.27 3486.19 270.58 3490.19 270.58"/><rect class="cls-8" x="3272.73" y="355.53" width="73.12" height="54.14"/><rect class="cls-7" x="3305.44" y="355.53" width="8" height="16"/><polygon class="cls-1" points="3285.98 366.84 3285.98 362.53 3287.48 362.53 3283.98 359.03 3280.48 362.53 3281.98 362.53 3281.98 366.84 3285.98 366.84"/><rect class="cls-8" x="3354.48" y="355.53" width="73.12" height="54.14"/><rect class="cls-7" x="3387.19" y="355.53" width="8" height="16"/><polygon class="cls-1" points="3367.73 366.84 3367.73 362.53 3369.23 362.53 3365.73 359.03 3362.23 362.53 3363.73 362.53 3363.73 366.84 3367.73 366.84"/><rect class="cls-7" x="3137.58" y="355.53" width="105.56" height="54.14"/><rect class="cls-8" x="3188.24" y="355.53" width="8" height="16"/><path class="cls-1" d="M3157.8,392.78v-1.37H3146v1.37a5.89,5.89,0,0,0,5.17,5.84v5.73l-4.27,1.44h9.88l-4.27-1.44h0v-5.71A5.89,5.89,0,0,0,3157.8,392.78Zm-5.89,4.41a4.42,4.42,0,0,1-4.41-4.41h8.83A4.41,4.41,0,0,1,3151.91,397.19Z"/><rect class="cls-9" x="3142.41" y="388.86" width="19" height="19"/><rect class="cls-7" x="3000.72" y="355.53" width="105.56" height="54.14"/><rect class="cls-8" x="3051.39" y="355.53" width="8" height="16"/><path class="cls-1" d="M3020.94,392.78v-1.37h-11.77v1.37a5.89,5.89,0,0,0,5.17,5.84v5.73l-4.27,1.44h9.88l-4.27-1.44h0v-5.71A5.89,5.89,0,0,0,3020.94,392.78Zm-5.89,4.41a4.42,4.42,0,0,1-4.41-4.41h8.83A4.41,4.41,0,0,1,3015.05,397.19Z"/><rect class="cls-9" x="3005.56" y="388.86" width="19" height="19"/><rect class="cls-8" x="2896.31" y="355.53" width="73.12" height="54.14"/><rect class="cls-7" x="2929.01" y="355.53" width="8" height="16"/><polygon class="cls-1" points="2909.55 366.84 2909.55 362.53 2911.05 362.53 2907.55 359.03 2904.05 362.53 2905.55 362.53 2905.55 366.84 2909.55 366.84"/><rect class="cls-10" x="3956.44" y="367.34" width="74.85" height="42.83"/><rect class="cls-7" x="3666.66" y="355.03" width="105.56" height="54.14"/><rect class="cls-8" x="3717.32" y="355.03" width="8" height="16"/><path class="cls-1" d="M3686.88,392.28v-1.37H3675.1v1.37a5.89,5.89,0,0,0,5.17,5.84v5.73l-4.27,1.44h9.88l-4.27-1.44h0v-5.71A5.89,5.89,0,0,0,3686.88,392.28Zm-5.89,4.41a4.42,4.42,0,0,1-4.41-4.41h8.83A4.41,4.41,0,0,1,3681,396.69Z"/><rect class="cls-9" x="3671.49" y="388.36" width="19" height="19"/><rect class="cls-8" x="3789.12" y="355.03" width="73.12" height="54.14"/><rect class="cls-7" x="3821.82" y="355.03" width="8" height="16"/><polygon class="cls-1" points="3802.36 366.34 3802.36 362.03 3803.86 362.03 3800.36 358.53 3796.86 362.03 3798.36 362.03 3798.36 366.34 3802.36 366.34"/><rect class="cls-8" x="3870.87" y="355.03" width="73.12" height="54.14"/><rect class="cls-7" x="3903.57" y="355.03" width="8" height="16"/><polygon class="cls-1" points="3884.11 366.34 3884.11 362.03 3885.61 362.03 3882.11 358.53 3878.61 362.03 3880.11 362.03 3880.11 366.34 3884.11 366.34"/><rect class="cls-10" x="3562.52" y="271.58" width="74.85" height="42.83"/><rect class="cls-8" x="3595.94" y="271.58" width="8" height="12.66"/><rect class="cls-10" x="3562.52" y="366.95" width="74.85" height="42.83"/><rect class="cls-8" x="3595.94" y="366.95" width="8" height="12.66"/><rect class="cls-7" x="3831.42" y="451.74" width="105.56" height="54.14"/><rect class="cls-8" x="3882.09" y="451.74" width="8" height="16"/><path class="cls-1" d="M3851.64,489v-1.37h-11.77V489a5.89,5.89,0,0,0,5.17,5.84v5.73l-4.27,1.44h9.88l-4.27-1.44h0v-5.71A5.89,5.89,0,0,0,3851.64,489Zm-5.89,4.41a4.42,4.42,0,0,1-4.41-4.41h8.83A4.41,4.41,0,0,1,3845.75,493.4Z"/><rect class="cls-9" x="3836.25" y="485.07" width="19" height="19"/><rect class="cls-8" x="3665.24" y="451.74" width="73.12" height="54.14"/><rect class="cls-7" x="3697.95" y="451.74" width="8" height="16"/><polygon class="cls-1" points="3678.49 463.05 3678.49 458.74 3679.99 458.74 3676.49 455.24 3672.99 458.74 3674.49 458.74 3674.49 463.05 3678.49 463.05"/><rect class="cls-8" x="3746.99" y="451.74" width="73.12" height="54.14"/><rect class="cls-7" x="3779.7" y="451.74" width="8" height="16"/><polygon class="cls-1" points="3760.24 463.05 3760.24 458.74 3761.74 458.74 3758.24 455.24 3754.74 458.74 3756.24 458.74 3756.24 463.05 3760.24 463.05"/><rect class="cls-10" x="3955.03" y="463.16" width="74.85" height="42.83"/><rect class="cls-8" x="3988.45" y="463.16" width="8" height="12.66"/><rect class="cls-7" x="3045.21" y="259.21" width="105.56" height="54.14"/><rect class="cls-8" x="3095.88" y="259.21" width="8" height="16"/><path class="cls-1" d="M3065.43,296.46v-1.37h-11.77v1.37a5.89,5.89,0,0,0,5.17,5.84V308l-4.27,1.44h9.88l-4.27-1.44h0v-5.71A5.89,5.89,0,0,0,3065.43,296.46Zm-5.89,4.41a4.42,4.42,0,0,1-4.41-4.41H3064A4.41,4.41,0,0,1,3059.54,300.87Z"/><rect class="cls-9" x="3050.05" y="292.55" width="19" height="19"/><rect class="cls-8" x="2879.03" y="259.21" width="73.12" height="54.14"/><rect class="cls-7" x="2911.74" y="259.21" width="8" height="16"/><polygon class="cls-1" points="2892.28 270.53 2892.28 266.21 2893.78 266.21 2890.28 262.71 2886.78 266.21 2888.28 266.21 2888.28 270.53 2892.28 270.53"/><rect class="cls-8" x="2960.78" y="259.21" width="73.12" height="54.14"/><rect class="cls-7" x="2993.49" y="259.21" width="8" height="16"/><polygon class="cls-1" points="2974.03 270.53 2974.03 266.21 2975.53 266.21 2972.03 262.71 2968.53 266.21 2970.03 266.21 2970.03 270.53 2974.03 270.53"/><rect class="cls-10" x="3168.82" y="270.63" width="74.85" height="42.83"/><rect class="cls-8" x="3202.25" y="270.63" width="8" height="12.66"/><rect class="cls-7" x="3763.3" y="260.21" width="105.56" height="54.14" transform="translate(7632.15 574.56) rotate(180)"/><rect class="cls-8" x="3810.19" y="260.21" width="8" height="16" transform="translate(7628.38 536.43) rotate(180)"/><path class="cls-1" d="M3853.91,303.31V309h0l-4.27,1.44h9.88l-4.27-1.44V303.3a5.89,5.89,0,0,0,5.17-5.84v-1.37h-11.77v1.37A5.89,5.89,0,0,0,3853.91,303.31Zm-3.8-5.86h8.83a4.41,4.41,0,1,1-8.83,0Z"/><rect class="cls-9" x="3845.02" y="293.55" width="19" height="19" transform="translate(7709.05 606.09) rotate(180)"/><rect class="cls-8" x="3961.91" y="260.21" width="73.12" height="54.14" transform="translate(7996.95 574.56) rotate(180)"/><rect class="cls-7" x="3994.33" y="260.21" width="8" height="16" transform="translate(7996.66 536.43) rotate(180)"/><polygon class="cls-1" points="4021.79 271.53 4021.79 267.21 4020.29 267.21 4023.79 263.71 4027.29 267.21 4025.79 267.21 4025.79 271.53 4021.79 271.53"/><rect class="cls-8" x="3880.16" y="260.21" width="73.12" height="54.14" transform="translate(7833.45 574.56) rotate(180)"/><rect class="cls-7" x="3912.58" y="260.21" width="8" height="16" transform="translate(7833.16 536.43) rotate(180)"/><polygon class="cls-1" points="3940.04 271.53 3940.04 267.21 3938.54 267.21 3942.04 263.71 3945.54 267.21 3944.04 267.21 3944.04 271.53 3940.04 271.53"/><rect class="cls-10" x="3670.4" y="271.63" width="74.85" height="42.83" transform="translate(7415.65 586.09) rotate(180)"/><rect class="cls-8" x="3703.82" y="271.63" width="8" height="12.66" transform="translate(7415.65 555.93) rotate(180)"/><rect class="cls-10" x="3293.97" y="462.71" width="74.85" height="42.83"/><rect class="cls-8" x="3327.4" y="462.71" width="8" height="12.66"/><rect class="cls-10" x="3163.99" y="463.11" width="74.85" height="42.83"/><rect class="cls-8" x="3197.41" y="463.11" width="8" height="12.66"/><rect class="cls-8" x="3989.87" y="367.7" width="8" height="12.66"/><rect class="cls-4" x="4.16" y="125.58" width="4152.82" height="9"/></g></g></svg>