<!-- Generator: Adobe Illustrator 21.0.0, SVG Export Plug-In  -->
<svg version="1.1"
	 xmlns="http://www.w3.org/2000/svg" xmlns:xlink="http://www.w3.org/1999/xlink" xmlns:a="http://ns.adobe.com/AdobeSVGViewerExtensions/3.0/"
	 x="0px" y="0px" width="1622.2px" height="114.3px" viewBox="0 0 1622.2 114.3" style="enable-background:new 0 0 1622.2 114.3;"
	 xml:space="preserve">
<style type="text/css">
	.st0{fill:#F2F9FC;}
</style>
<defs>
</defs>
<g>
	<path class="st0" d="M62.5,90.3c-1.1,0.1-2.3,0.2-3.4,0.3c-1.2,0.1-2.3,0.2-3.5,0.2c-1.1,0-2.2,0.1-3,0.1L25.4,43.3
		c-0.4-0.9-1-2.1-1.7-3.8c-0.7-1.6-1.3-3.2-1.7-4.7l-1,0.1c0.1,1.3,0.3,2.8,0.4,4.5c0.1,1.7,0.2,3.2,0.2,4.4v34.4
		c0,4.9-1,8.3-3,10.3c-2,2-4.8,2.9-8.5,2.9c-2.8,0-5.2-0.7-7.1-2.1C1,87.9,0,85.6,0,82.2v-3.1h5.4c1.5,0,2.4-0.3,2.9-0.8
		s0.7-1.6,0.7-3V16.4c1-0.1,2.2-0.3,3.5-0.4c1.3-0.1,2.6-0.3,3.9-0.3c1.3-0.1,2.5-0.1,3.8-0.2c1.2,0,2.3-0.1,3.3-0.1l25.6,45
		c0.6,1,1.2,2.3,1.9,3.8c0.7,1.5,1.3,3,1.8,4.7l1-0.1c-0.1-1.6-0.3-3.1-0.4-4.7c-0.1-1.6-0.2-3-0.2-4.3V15.6h12.5v74.3
		C64.6,90,63.6,90.2,62.5,90.3z"/>
	<path class="st0" d="M114.7,88.6c-1.3,3.8-2.8,7.3-4.5,10.5c-1.8,3.1-3.8,5.8-5.9,8.1c-2.2,2.3-4.5,4-7,5.3
		c-2.5,1.3-5.1,1.9-7.8,1.9c-1.4,0-3.1-0.1-5.2-0.4c-2-0.3-3.9-0.8-5.6-1.7c0.2-2.1,0.5-4.1,0.9-6.2c0.4-2,0.9-3.9,1.4-5.5
		c1.1,0.5,2.6,0.9,4.4,1.1c1.8,0.2,3.5,0.3,5,0.3c1.9,0,3.5-0.5,4.8-1.4c1.3-1,2.5-2.5,3.5-4.8l2.3-5.2c-1.6-3.8-3.3-7.9-5.2-12.5
		c-1.8-4.6-3.6-9.4-5.3-14.4c-1.7-5-3.4-10.1-4.9-15.4S82.8,38,81.7,33c1.8-0.3,3.8-0.5,6.2-0.7c2.4-0.1,4.4-0.2,6.2-0.2l11.2,37.6
		c0.3,1,0.6,2.1,0.9,3.3c0.3,1.3,0.6,2.4,0.7,3.4h0.7c0.2-1,0.5-2.2,0.8-3.4c0.3-1.3,0.6-2.4,1-3.4l11.5-37.5c1.7,0,3.7,0.1,6,0.2
		c2.3,0.1,4.4,0.4,6.3,0.7L114.7,88.6z M117.4,18.5c-1.8,3.1-3.8,5.9-6,8.5c-1.7,0-3.4-0.1-5.2-0.2c-1.8-0.1-3.4-0.3-4.9-0.6
		l6.8-16.8h13.6C120.7,12.3,119.2,15.4,117.4,18.5z"/>
	<path class="st0" d="M220,61.4c0,5-0.7,9.3-2,13c-1.3,3.7-3.2,6.9-5.5,9.4c-2.4,2.5-5.1,4.4-8.3,5.7c-3.1,1.3-6.6,1.9-10.3,1.9
		c-3.8,0-7.2-0.6-10.4-1.8c-3.1-1.2-5.8-3-8.1-5.4c-2.3-2.4-4-5.5-5.2-9.3c-1.2-3.8-1.8-8.3-1.8-13.5c0-4.7,0.6-9,1.9-12.7
		c1.3-3.7,3.1-6.9,5.3-9.4c2.3-2.5,5-4.5,8.1-5.9c3.2-1.4,6.7-2.1,10.4-2.1c3.7,0,7.1,0.6,10.2,1.7c3.1,1.1,5.8,2.9,8.1,5.3
		c2.3,2.4,4.1,5.5,5.4,9.3C219.4,51.4,220,56,220,61.4z M206.5,61.4c0-7-1.1-12-3.2-14.9c-2.1-2.9-5.2-4.3-9.1-4.3
		c-1.8,0-3.5,0.3-5,1c-1.5,0.7-2.8,1.7-3.8,3.2c-1.1,1.5-1.9,3.5-2.4,5.9c-0.6,2.5-0.8,5.5-0.8,9c0,7.1,1,12.1,2.9,14.9
		c2,2.8,4.9,4.3,8.9,4.3c2,0,3.8-0.3,5.3-1c1.6-0.7,2.9-1.7,3.9-3.2c1.1-1.5,1.9-3.5,2.4-5.9C206.2,68,206.5,64.9,206.5,61.4z"/>
	<path class="st0" d="M283.5,93.5c0,3-0.5,5.8-1.6,8.4c-1.1,2.5-2.7,4.7-4.8,6.5c-2.1,1.8-4.9,3.2-8.1,4.3c-3.3,1-7.1,1.6-11.6,1.6
		s-8.1-0.4-11.1-1.3c-3-0.9-5.3-2.1-7.1-3.7c-1.8-1.6-3.1-3.3-3.9-5.4c-0.8-2-1.2-4.2-1.2-6.5c0-2.3,0.4-4.3,1.3-5.9s2.2-3.4,4-5.2
		c-0.7-1.1-1.3-2.3-1.9-3.7c-0.6-1.3-1.1-2.7-1.5-4c0.2-0.8,0.5-1.8,0.9-3c0.4-1.2,0.8-2.4,1.4-3.8c0.6-1.3,1.2-2.6,1.9-3.9
		c0.7-1.3,1.4-2.4,2.2-3.4c-2-1.5-3.6-3.4-4.8-5.7c-1.2-2.3-1.8-5-1.8-8.1c0-5.8,1.8-10.4,5.4-14c3.6-3.6,8.7-5.4,15.3-5.4
		c1,0,2,0.1,3,0.2c1,0.1,1.9,0.2,2.8,0.4c0-2.7,0.4-5.1,1.1-7c0.7-2,1.8-3.6,3-4.9c1.3-1.3,2.8-2.2,4.5-2.8c1.7-0.6,3.5-0.9,5.4-0.9
		c5,0,7.4,2.3,7.4,6.9v4.2h-6.2c-2.2,0-3.8,0.5-4.8,1.6c-1,1-1.5,2.6-1.5,4.8V36c2.1,1.7,3.8,3.8,4.9,6.3c1.1,2.5,1.7,5.3,1.7,8.4
		c0,3.2-0.5,5.9-1.5,8.3c-1,2.3-2.4,4.2-4.2,5.7c-1.8,1.5-3.9,2.6-6.3,3.3c-2.4,0.7-5.1,1.1-8,1.1c-1.4,0-2.8-0.1-4.1-0.3
		c-1.3-0.2-2.5-0.4-3.5-0.7c-1,1.3-1.6,2.5-2,3.7c-0.4,1.1-0.6,2.1-0.6,2.9c0,1.3,0.3,2.1,0.8,2.6c0.6,0.5,1.4,0.7,2.6,0.7h15.8
		c2.6,0,4.9,0.2,6.9,0.7c2,0.5,3.8,1.3,5.2,2.5c1.4,1.2,2.5,2.8,3.3,4.8C283.1,88,283.5,90.5,283.5,93.5z M271.5,94.8
		c0-2.1-0.4-3.6-1.2-4.3c-0.8-0.7-2.2-1.1-4.3-1.1h-19.2c-0.6,0.8-1,1.7-1.2,2.8c-0.2,1-0.3,2-0.3,2.8c0,1.6,0.2,2.9,0.6,4
		c0.4,1.1,1.1,2.1,2,2.8c1,0.7,2.3,1.2,3.9,1.6c1.6,0.3,3.7,0.5,6.2,0.5c4.3,0,7.6-0.7,9.9-2.1C270.4,100.3,271.5,98,271.5,94.8z
		 M266.3,50.1c0-3.7-0.9-6.3-2.5-7.7c-1.7-1.4-4-2.2-6.8-2.2c-6.2,0-9.3,3.3-9.3,9.9c0,3.5,0.8,6.1,2.4,7.6c1.6,1.5,3.9,2.3,6.9,2.3
		c2.9,0,5.2-0.7,6.8-2.2C265.5,56.3,266.3,53.7,266.3,50.1z"/>
	<path class="st0" d="M367.1,56.1c0,1.3,0,2.7-0.1,4.2c-0.1,1.6-0.2,3-0.3,4.3H334v1c0,2.4,0.2,4.4,0.7,6.2c0.4,1.7,1.2,3.2,2.2,4.3
		c1,1.1,2.5,2,4.3,2.5c1.8,0.6,4.1,0.8,6.8,0.8c1.3,0,2.7-0.1,4.1-0.3c1.4-0.2,2.8-0.4,4.2-0.8c1.4-0.3,2.7-0.7,3.9-1.1
		c1.2-0.4,2.2-0.9,3.1-1.4c0.6,1.7,1.1,3.6,1.7,5.8c0.5,2.1,0.9,4.2,1.2,6.1c-1.2,0.6-2.5,1.1-4.1,1.6c-1.6,0.4-3.2,0.8-4.8,1.2
		s-3.3,0.6-5,0.7c-1.7,0.1-3.2,0.2-4.5,0.2c-8.9,0-15.8-2.4-20.5-7.3c-4.7-4.8-7.1-12.2-7.1-22c0-5.2,0.6-9.8,1.8-13.6
		c1.2-3.8,2.9-7,5.2-9.6c2.2-2.5,4.8-4.5,7.9-5.7c3-1.3,6.3-1.9,9.9-1.9c7.6,0,13.2,2.2,16.8,6.7C365.3,42.4,367.1,48.5,367.1,56.1z
		 M344.7,41c-3.3,0-5.9,1.2-7.7,3.5c-1.8,2.4-2.8,6.2-2.8,11.5h20.1c0.1-0.4,0.1-0.9,0.1-1.6c0-0.7,0-1.3,0-1.7c0-4.1-0.8-7.1-2.4-9
		C350.4,42,347.9,41,344.7,41z"/>
	<path class="st0" d="M398.4,17.1c0,2-0.6,3.7-1.8,5.2c-1.2,1.5-3,2.2-5.5,2.2c-2.4,0-4.1-0.8-5.3-2.3c-1.2-1.5-1.8-3.2-1.8-5.2
		c0-1.9,0.6-3.7,1.8-5.3c1.2-1.6,3-2.4,5.4-2.4s4.2,0.8,5.4,2.3C397.8,13.3,398.4,15.1,398.4,17.1z M384.9,90.3V32.5h12.6v57.9
		H384.9z"/>
	<path class="st0" d="M452.5,90.3v-40c0-2.5-0.6-4.4-1.8-5.8c-1.2-1.3-3.5-2-6.8-2c-4.4,0-8.5,1.3-12.1,3.8v44h-12.6V32.9
		c1.8-0.2,3.8-0.4,6.2-0.6c2.3-0.1,4.5-0.2,6.5-0.2v5.8h0.7c2.9-2.7,5.6-4.4,8.1-5.3c2.5-0.8,5.2-1.3,7.8-1.3c2.2,0,4.3,0.3,6.4,0.9
		c2,0.6,3.8,1.6,5.4,3c1.6,1.4,2.8,3.2,3.7,5.5c0.9,2.3,1.3,5.1,1.3,8.4v41.1H452.5z"/>
	<path class="st0" d="M514,8.3c0,1.8-0.1,3.7-0.2,5.6c-0.1,1.9-0.3,3.8-0.6,5.7c-0.6-0.1-1.5-0.2-2.7-0.3c-1.2,0-2.2-0.1-3-0.1
		c-2.2,0-3.8,0.5-4.8,1.6c-1,1.1-1.4,2.9-1.4,5.5v6.1h12.6c0,1.8-0.1,3.7-0.2,5.5c-0.1,1.8-0.4,3.7-0.7,5.5h-11.7v48.9
		c0,3-0.4,5.7-1.2,8.4c-0.8,2.6-1.9,4.9-3.5,6.9c-1.6,2-3.5,3.6-5.8,4.8c-2.3,1.2-5,1.8-8.1,1.8c-1,0-2.2-0.1-3.6-0.2
		c-1.4-0.1-2.4-0.2-3-0.4c0-3.8,0.2-7.5,0.7-11.3c0.6,0.1,1.5,0.3,2.8,0.3c1.3,0.1,2.3,0.1,3,0.1c2.2,0,3.8-0.6,4.8-1.8
		c1-1.2,1.4-3,1.4-5.3V43.6H482V32.5h6.6v-5.1c0-3,0.5-5.7,1.4-8.1c1-2.4,2.3-4.4,3.9-6.1c1.7-1.7,3.6-3,5.9-3.9
		c2.3-0.9,4.7-1.4,7.4-1.4c1.1,0,2.3,0,3.7,0.1C512.4,8.1,513.4,8.2,514,8.3z"/>
	<path class="st0" d="M576.2,61.4c0,5-0.7,9.3-2,13c-1.3,3.7-3.2,6.9-5.5,9.4c-2.4,2.5-5.1,4.4-8.3,5.7c-3.1,1.3-6.6,1.9-10.3,1.9
		c-3.8,0-7.2-0.6-10.4-1.8c-3.1-1.2-5.8-3-8.1-5.4c-2.3-2.4-4-5.5-5.2-9.3c-1.2-3.8-1.8-8.3-1.8-13.5c0-4.7,0.6-9,1.9-12.7
		c1.3-3.7,3.1-6.9,5.3-9.4c2.3-2.5,5-4.5,8.1-5.9c3.2-1.4,6.7-2.1,10.4-2.1c3.7,0,7.1,0.6,10.2,1.7c3.1,1.1,5.8,2.9,8.1,5.3
		c2.3,2.4,4.1,5.5,5.4,9.3C575.6,51.4,576.2,56,576.2,61.4z M547.2,19.1c0,2.1-0.6,3.8-1.8,5.1c-1.2,1.3-2.9,2-5.2,2
		c-2.2,0-3.9-0.7-5-2.1c-1.1-1.4-1.7-3-1.7-5c0-1.9,0.6-3.6,1.7-5c1.1-1.4,2.8-2.2,5.2-2.2c2.3,0,4,0.7,5.2,2.1
		C546.6,15.4,547.2,17.1,547.2,19.1z M562.7,61.4c0-7-1.1-12-3.2-14.9c-2.1-2.9-5.2-4.3-9.1-4.3c-1.8,0-3.5,0.3-5,1
		c-1.5,0.7-2.8,1.7-3.8,3.2c-1.1,1.5-1.9,3.5-2.4,5.9c-0.6,2.5-0.8,5.5-0.8,9c0,7.1,1,12.1,2.9,14.9c2,2.8,4.9,4.3,8.9,4.3
		c2,0,3.8-0.3,5.3-1c1.6-0.7,2.9-1.7,3.9-3.2c1.1-1.5,1.9-3.5,2.4-5.9C562.4,68,562.7,64.9,562.7,61.4z M567.8,19.1
		c0,2.1-0.6,3.8-1.7,5.1c-1.1,1.3-2.9,2-5.2,2c-2.2,0-3.9-0.7-5.1-2.1c-1.2-1.4-1.8-3-1.8-5c0-1.9,0.6-3.6,1.7-5
		c1.1-1.4,2.9-2.2,5.3-2.2c2.2,0,3.9,0.7,5,2.1C567.2,15.4,567.8,17.1,567.8,19.1z"/>
	<path class="st0" d="M593.9,90.3V8.8c1.8-0.2,3.8-0.4,6.2-0.6c2.3-0.2,4.5-0.3,6.5-0.3v82.5H593.9z"/>
	<path class="st0" d="M680,89.6c-1.8,1.3-4,1.9-6.5,1.9c-2.1,0-4.3-0.5-6.5-1.6c-2.2-1-3.8-3.1-4.8-6.2h-0.4c-3,3.2-5.8,5.3-8.6,6.3
		c-2.8,1-5.6,1.5-8.3,1.5c-6.7,0-11.8-2.4-15.2-7.2c-3.4-4.8-5.2-11.9-5.2-21.2c0-5.7,0.6-10.5,1.9-14.5c1.3-4,3-7.3,5.2-9.8
		s4.9-4.4,8-5.6c3.1-1.2,6.5-1.8,10.2-1.8c1.7,0,3.5,0.1,5.4,0.4c1.9,0.3,3.7,0.7,5.2,1.2V8.8c1.8-0.2,3.8-0.4,6.2-0.6
		c2.4-0.2,4.5-0.3,6.4-0.3v66.9c0,1.5,0.2,2.5,0.7,3.1c0.5,0.6,1.3,0.9,2.6,0.9h6.5v4.1C682.7,86.1,681.8,88.3,680,89.6z
		 M660.2,44.6c-1.1-0.7-2.5-1.2-4.3-1.7s-3.5-0.7-5.1-0.7c-2.2,0-4.1,0.3-5.8,1c-1.6,0.7-3,1.8-4,3.3c-1.1,1.5-1.9,3.5-2.4,6
		c-0.5,2.5-0.8,5.6-0.8,9.3c0,3.6,0.2,6.6,0.7,9c0.4,2.4,1.1,4.2,2,5.7c0.9,1.4,2,2.4,3.4,2.9c1.4,0.6,3.1,0.8,5,0.8
		c2.1,0,4.2-0.2,6.1-0.7c1.9-0.4,3.7-1.2,5.2-2.2V44.6z"/>
	<path class="st0" d="M748,8.3c0,1.8-0.1,3.7-0.2,5.6c-0.1,1.9-0.3,3.8-0.6,5.7c-0.6-0.1-1.5-0.2-2.7-0.3c-1.2,0-2.2-0.1-3-0.1
		c-2.2,0-3.8,0.5-4.8,1.6c-1,1.1-1.4,2.9-1.4,5.5v6.1h12.6c0,1.8-0.1,3.7-0.2,5.5c-0.1,1.8-0.4,3.7-0.7,5.5h-11.7v48.9
		c0,3-0.4,5.7-1.2,8.4c-0.8,2.6-1.9,4.9-3.5,6.9c-1.6,2-3.5,3.6-5.8,4.8c-2.3,1.2-5,1.8-8.1,1.8c-1,0-2.2-0.1-3.6-0.2
		c-1.4-0.1-2.4-0.2-3-0.4c0-3.8,0.2-7.5,0.7-11.3c0.6,0.1,1.5,0.3,2.8,0.3c1.3,0.1,2.3,0.1,3,0.1c2.2,0,3.8-0.6,4.8-1.8
		c1-1.2,1.4-3,1.4-5.3V43.6H716V32.5h6.6v-5.1c0-3,0.5-5.7,1.4-8.1c1-2.4,2.3-4.4,3.9-6.1c1.7-1.7,3.6-3,5.9-3.9
		c2.3-0.9,4.7-1.4,7.4-1.4c1.1,0,2.3,0,3.7,0.1C746.3,8.1,747.3,8.2,748,8.3z"/>
	<path class="st0" d="M770.3,107.8c-3.6,3.8-8.5,5.9-14.8,6.4c-0.6-1.6-1.1-3.4-1.6-5.5c-0.5-2.1-0.8-4.1-1.1-5.9
		c3.8-0.1,6.4-1.1,7.9-2.9c1.5-1.8,2.3-4.4,2.3-7.8V32.5h12.6v59C775.7,98.6,773.9,104.1,770.3,107.8z M776.6,17.1
		c0,2-0.6,3.7-1.8,5.2c-1.2,1.5-3,2.2-5.5,2.2c-2.4,0-4.1-0.8-5.3-2.3c-1.2-1.5-1.8-3.2-1.8-5.2c0-1.9,0.6-3.7,1.8-5.3
		c1.2-1.6,3-2.4,5.4-2.4s4.2,0.8,5.4,2.3C776,13.3,776.6,15.1,776.6,17.1z"/>
	<path class="st0" d="M841.2,74.8c0,1.5,0.2,2.5,0.7,3.1c0.5,0.6,1.3,0.9,2.6,0.9h6.5v4.1c0,3.2-0.9,5.4-2.8,6.7
		c-1.8,1.3-4,1.9-6.5,1.9c-2.2,0-4.4-0.5-6.5-1.6c-2.1-1-3.7-3.1-4.8-6.1h-0.3c-2.6,2.7-5.2,4.7-7.8,5.9c-2.6,1.2-5.2,1.8-7.9,1.8
		c-6.7,0-11.9-2.3-15.6-6.9c-3.7-4.6-5.5-11.8-5.5-21.4c0-5.2,0.6-9.8,1.8-13.8c1.2-4,2.9-7.3,5.2-9.9s4.9-4.7,8-6s6.5-2,10.3-2
		c3.2,0,6.5,0.5,9.8,1.6c1-0.4,2.2-0.8,3.6-1c1.4-0.2,2.8-0.3,4.3-0.3c0.9,0,1.7,0,2.5,0.1c0.8,0.1,1.6,0.2,2.3,0.3V74.8z
		 M828.5,44.6c-1.1-0.7-2.4-1.2-4-1.6c-1.6-0.4-3.1-0.6-4.5-0.6c-2.2,0-4.1,0.3-5.8,0.9c-1.6,0.6-3,1.7-4,3.2
		c-1.1,1.5-1.9,3.5-2.4,6c-0.5,2.5-0.8,5.6-0.8,9.3c0,3.6,0.2,6.6,0.7,9c0.4,2.4,1.1,4.2,2,5.7c0.9,1.4,2,2.4,3.4,2.9
		c1.4,0.6,3.1,0.8,5,0.8c2.2,0,4.2-0.2,5.8-0.7c1.7-0.5,3.2-1.2,4.6-2.1V44.6z M830.5,18.5c-1.8,3.1-3.8,5.9-6,8.5
		c-1.7,0-3.4-0.1-5.2-0.2c-1.8-0.1-3.4-0.3-4.9-0.6l6.8-16.8h13.6C833.7,12.3,832.3,15.4,830.5,18.5z"/>
	<path class="st0" d="M894.6,32c0,2.1-0.1,4.3-0.3,6.5c-0.2,2.2-0.5,4.4-0.9,6.5c-1.5-0.4-3.2-0.6-5.2-0.6s-3.9,0.3-5.8,0.8
		c-1.9,0.6-3.8,1.6-5.8,3.2v41.8h-12.6V32.9c1.8-0.2,3.8-0.4,6.2-0.6c2.3-0.1,4.5-0.2,6.5-0.2v7.4h0.7c1.5-1.9,2.8-3.4,4-4.5
		c1.2-1.1,2.3-1.9,3.4-2.4c1.1-0.6,2.1-0.9,3-1.1c1-0.1,1.9-0.2,2.8-0.2c0.6,0,1.3,0.1,2,0.2C893.2,31.6,894,31.8,894.6,32z"/>
	<path class="st0" d="M971.8,90.3V50.2c0-2.4-0.6-4.2-1.7-5.6c-1.1-1.4-3.2-2.1-6.2-2.1c-2.1,0-4.1,0.3-5.8,0.9
		c-1.7,0.6-3.3,1.6-4.9,2.8v44h-12.6v-40c0-2.4-0.6-4.3-1.7-5.7c-1.1-1.4-3.1-2.1-6-2.1c-3.8,0-7.5,1.3-10.9,3.8v44h-12.6V32.9
		c1.8-0.2,3.8-0.4,6.2-0.6c2.3-0.1,4.5-0.2,6.5-0.2v5.8h0.7c2.7-2.4,5.1-4,7.4-5c2.3-1,4.8-1.5,7.6-1.5c2.9,0,5.4,0.6,7.7,1.7
		c2.3,1.1,4,3.1,5.3,5.9c2.9-2.9,5.7-4.9,8.3-5.9c2.7-1.1,5.5-1.6,8.6-1.6c2.4,0,4.6,0.3,6.6,0.9c2,0.6,3.8,1.7,5.3,3.1
		c1.5,1.4,2.7,3.3,3.5,5.5c0.8,2.2,1.3,5,1.3,8.2v41.2H971.8z"/>
	<path class="st0" d="M1053.3,61.4c0,5-0.7,9.3-2,13c-1.3,3.7-3.2,6.9-5.5,9.4c-2.4,2.5-5.1,4.4-8.3,5.7c-3.1,1.3-6.6,1.9-10.3,1.9
		c-3.8,0-7.2-0.6-10.4-1.8c-3.1-1.2-5.8-3-8.1-5.4c-2.3-2.4-4-5.5-5.2-9.3c-1.2-3.8-1.8-8.3-1.8-13.5c0-4.7,0.6-9,1.9-12.7
		c1.3-3.7,3.1-6.9,5.3-9.4c2.3-2.5,5-4.5,8.1-5.9c3.2-1.4,6.7-2.1,10.4-2.1c3.7,0,7.1,0.6,10.2,1.7c3.1,1.1,5.8,2.9,8.1,5.3
		c2.3,2.4,4.1,5.5,5.4,9.3C1052.7,51.4,1053.3,56,1053.3,61.4z M1024.3,19.1c0,2.1-0.6,3.8-1.8,5.1c-1.2,1.3-2.9,2-5.2,2
		c-2.2,0-3.9-0.7-5-2.1c-1.1-1.4-1.7-3-1.7-5c0-1.9,0.6-3.6,1.7-5c1.1-1.4,2.8-2.2,5.2-2.2c2.3,0,4,0.7,5.2,2.1
		C1023.7,15.4,1024.3,17.1,1024.3,19.1z M1039.8,61.4c0-7-1.1-12-3.2-14.9c-2.1-2.9-5.2-4.3-9.1-4.3c-1.8,0-3.5,0.3-5,1
		c-1.5,0.7-2.8,1.7-3.8,3.2c-1.1,1.5-1.9,3.5-2.4,5.9c-0.6,2.5-0.8,5.5-0.8,9c0,7.1,1,12.1,2.9,14.9c2,2.8,4.9,4.3,8.9,4.3
		c2,0,3.8-0.3,5.3-1c1.6-0.7,2.9-1.7,3.9-3.2c1.1-1.5,1.9-3.5,2.4-5.9C1039.5,68,1039.8,64.9,1039.8,61.4z M1044.9,19.1
		c0,2.1-0.6,3.8-1.7,5.1c-1.1,1.3-2.9,2-5.2,2c-2.2,0-3.9-0.7-5.1-2.1c-1.2-1.4-1.8-3-1.8-5c0-1.9,0.6-3.6,1.7-5
		c1.1-1.4,2.9-2.2,5.3-2.2c2.2,0,3.9,0.7,5,2.1C1044.3,15.4,1044.9,17.1,1044.9,19.1z"/>
	<path class="st0" d="M1116.9,93.5c0,3-0.5,5.8-1.6,8.4c-1.1,2.5-2.7,4.7-4.8,6.5c-2.1,1.8-4.9,3.2-8.1,4.3c-3.3,1-7.1,1.6-11.6,1.6
		s-8.1-0.4-11.1-1.3c-3-0.9-5.3-2.1-7.1-3.7c-1.8-1.6-3.1-3.3-3.9-5.4c-0.8-2-1.2-4.2-1.2-6.5c0-2.3,0.4-4.3,1.3-5.9s2.2-3.4,4-5.2
		c-0.7-1.1-1.3-2.3-1.9-3.7c-0.6-1.3-1.1-2.7-1.5-4c0.2-0.8,0.5-1.8,0.9-3c0.4-1.2,0.8-2.4,1.4-3.8c0.6-1.3,1.2-2.6,1.9-3.9
		c0.7-1.3,1.4-2.4,2.2-3.4c-2-1.5-3.6-3.4-4.8-5.7c-1.2-2.3-1.8-5-1.8-8.1c0-5.8,1.8-10.4,5.4-14c3.6-3.6,8.7-5.4,15.3-5.4
		c1,0,2,0.1,3,0.2c1,0.1,1.9,0.2,2.8,0.4c0-2.7,0.4-5.1,1.1-7c0.7-2,1.8-3.6,3-4.9c1.3-1.3,2.8-2.2,4.5-2.8c1.7-0.6,3.5-0.9,5.4-0.9
		c5,0,7.4,2.3,7.4,6.9v4.2h-6.2c-2.2,0-3.8,0.5-4.8,1.6c-1,1-1.5,2.6-1.5,4.8V36c2.1,1.7,3.8,3.8,4.9,6.3c1.1,2.5,1.7,5.3,1.7,8.4
		c0,3.2-0.5,5.9-1.5,8.3c-1,2.3-2.4,4.2-4.2,5.7c-1.8,1.5-3.9,2.6-6.3,3.3c-2.4,0.7-5.1,1.1-8,1.1c-1.4,0-2.8-0.1-4.1-0.3
		c-1.3-0.2-2.5-0.4-3.5-0.7c-1,1.3-1.6,2.5-2,3.7c-0.4,1.1-0.6,2.1-0.6,2.9c0,1.3,0.3,2.1,0.8,2.6c0.6,0.5,1.4,0.7,2.6,0.7h15.8
		c2.6,0,4.9,0.2,6.9,0.7c2,0.5,3.8,1.3,5.2,2.5c1.4,1.2,2.5,2.8,3.3,4.8C1116.5,88,1116.9,90.5,1116.9,93.5z M1104.9,94.8
		c0-2.1-0.4-3.6-1.2-4.3c-0.8-0.7-2.2-1.1-4.3-1.1h-19.2c-0.6,0.8-1,1.7-1.2,2.8c-0.2,1-0.3,2-0.3,2.8c0,1.6,0.2,2.9,0.6,4
		c0.4,1.1,1.1,2.1,2,2.8c1,0.7,2.3,1.2,3.9,1.6c1.6,0.3,3.7,0.5,6.2,0.5c4.3,0,7.6-0.7,9.9-2.1C1103.7,100.3,1104.9,98,1104.9,94.8z
		 M1099.7,50.1c0-3.7-0.9-6.3-2.5-7.7c-1.7-1.4-4-2.2-6.8-2.2c-6.2,0-9.3,3.3-9.3,9.9c0,3.5,0.8,6.1,2.4,7.6
		c1.6,1.5,3.9,2.3,6.9,2.3c2.9,0,5.2-0.7,6.8-2.2C1098.8,56.3,1099.7,53.7,1099.7,50.1z"/>
	<path class="st0" d="M1166,90.3v-40c0-2.5-0.6-4.4-1.8-5.8c-1.2-1.3-3.5-2-6.8-2c-4.4,0-8.5,1.3-12.1,3.8v44h-12.6V32.9
		c1.8-0.2,3.8-0.4,6.2-0.6c2.3-0.1,4.5-0.2,6.5-0.2v5.8h0.7c2.9-2.7,5.6-4.4,8.1-5.3c2.5-0.8,5.2-1.3,7.8-1.3c2.2,0,4.3,0.3,6.4,0.9
		c2,0.6,3.8,1.6,5.4,3c1.6,1.4,2.8,3.2,3.7,5.5c0.9,2.3,1.3,5.1,1.3,8.4v41.1H1166z"/>
	<path class="st0" d="M1232.8,90.3v-5h-0.7c-2.6,2.1-5.2,3.7-7.8,4.7c-2.6,1-5.3,1.4-8.1,1.4c-2.2,0-4.3-0.3-6.4-0.9
		c-2-0.6-3.8-1.6-5.3-3c-1.5-1.4-2.7-3.2-3.7-5.5c-0.9-2.3-1.4-5.1-1.4-8.4V32.9c1.8-0.3,3.9-0.5,6.2-0.6c2.3-0.1,4.4-0.2,6.4-0.2
		v40c0,2.6,0.7,4.6,2,6c1.3,1.4,3.8,2.1,7.3,2.1c2.1,0,4.1-0.3,6-0.8c1.8-0.5,3.6-1.3,5.3-2.2V32.9c1.8-0.3,3.9-0.5,6.2-0.6
		c2.3-0.1,4.4-0.2,6.4-0.2v58.2H1232.8z"/>
	<path class="st0" d="M1300.5,90.3v-40c0-2.5-0.6-4.4-1.8-5.8c-1.2-1.3-3.5-2-6.8-2c-4.4,0-8.5,1.3-12.1,3.8v44h-12.6V32.9
		c1.8-0.2,3.8-0.4,6.2-0.6c2.3-0.1,4.5-0.2,6.5-0.2v5.8h0.7c2.9-2.7,5.6-4.4,8.1-5.3c2.5-0.8,5.2-1.3,7.8-1.3c2.2,0,4.3,0.3,6.4,0.9
		c2,0.6,3.8,1.6,5.4,3c1.6,1.4,2.8,3.2,3.7,5.5c0.9,2.3,1.3,5.1,1.3,8.4v41.1H1300.5z"/>
	<path class="st0" d="M1378.3,74.8c0,1.5,0.2,2.5,0.7,3.1c0.5,0.6,1.3,0.9,2.6,0.9h6.5v4.1c0,3.2-0.9,5.4-2.8,6.7
		c-1.8,1.3-4,1.9-6.5,1.9c-2.2,0-4.4-0.5-6.5-1.6c-2.1-1-3.7-3.1-4.8-6.1h-0.3c-2.6,2.7-5.2,4.7-7.8,5.9c-2.6,1.2-5.2,1.8-7.9,1.8
		c-6.7,0-11.9-2.3-15.6-6.9c-3.7-4.6-5.5-11.8-5.5-21.4c0-5.2,0.6-9.8,1.8-13.8c1.2-4,2.9-7.3,5.2-9.9s4.9-4.7,8-6s6.5-2,10.3-2
		c3.2,0,6.5,0.5,9.8,1.6c1-0.4,2.2-0.8,3.6-1c1.4-0.2,2.8-0.3,4.3-0.3c0.9,0,1.7,0,2.5,0.1c0.8,0.1,1.6,0.2,2.3,0.3V74.8z
		 M1365.6,44.6c-1.1-0.7-2.4-1.2-4-1.6c-1.6-0.4-3.1-0.6-4.5-0.6c-2.2,0-4.1,0.3-5.8,0.9c-1.6,0.6-3,1.7-4,3.2
		c-1.1,1.5-1.9,3.5-2.4,6c-0.5,2.5-0.8,5.6-0.8,9.3c0,3.6,0.2,6.6,0.7,9c0.4,2.4,1.1,4.2,2,5.7c0.9,1.4,2,2.4,3.4,2.9
		c1.4,0.6,3.1,0.8,5,0.8c2.2,0,4.2-0.2,5.8-0.7c1.7-0.5,3.2-1.2,4.6-2.1V44.6z"/>
	<path class="st0" d="M1431.7,32c0,2.1-0.1,4.3-0.3,6.5c-0.2,2.2-0.5,4.4-0.9,6.5c-1.5-0.4-3.2-0.6-5.2-0.6s-3.9,0.3-5.8,0.8
		c-1.9,0.6-3.8,1.6-5.8,3.2v41.8H1401V32.9c1.8-0.2,3.8-0.4,6.2-0.6c2.3-0.1,4.5-0.2,6.5-0.2v7.4h0.7c1.5-1.9,2.8-3.4,4-4.5
		c1.2-1.1,2.3-1.9,3.4-2.4c1.1-0.6,2.1-0.9,3-1.1c1-0.1,1.9-0.2,2.8-0.2c0.6,0,1.3,0.1,2,0.2C1430.3,31.6,1431.1,31.8,1431.7,32z"/>
	<path class="st0" d="M1446.6,90.3V8.8c1.8-0.2,3.8-0.4,6.2-0.6c2.3-0.2,4.5-0.3,6.5-0.3v82.5H1446.6z"/>
	<path class="st0" d="M1523.8,56.1c0,1.3,0,2.7-0.1,4.2c-0.1,1.6-0.2,3-0.3,4.3h-32.6v1c0,2.4,0.2,4.4,0.7,6.2
		c0.4,1.7,1.2,3.2,2.2,4.3c1,1.1,2.5,2,4.3,2.5c1.8,0.6,4.1,0.8,6.8,0.8c1.3,0,2.7-0.1,4.1-0.3c1.4-0.2,2.8-0.4,4.2-0.8
		c1.4-0.3,2.7-0.7,3.9-1.1c1.2-0.4,2.2-0.9,3.1-1.4c0.6,1.7,1.1,3.6,1.7,5.8c0.5,2.1,0.9,4.2,1.2,6.1c-1.2,0.6-2.5,1.1-4.1,1.6
		c-1.6,0.4-3.2,0.8-4.8,1.2s-3.3,0.6-5,0.7c-1.7,0.1-3.2,0.2-4.5,0.2c-8.9,0-15.8-2.4-20.5-7.3c-4.7-4.8-7.1-12.2-7.1-22
		c0-5.2,0.6-9.8,1.8-13.6c1.2-3.8,2.9-7,5.2-9.6c2.2-2.5,4.8-4.5,7.9-5.7c3-1.3,6.3-1.9,9.9-1.9c7.6,0,13.2,2.2,16.8,6.7
		C1522,42.4,1523.8,48.5,1523.8,56.1z M1501.4,41c-3.3,0-5.9,1.2-7.7,3.5c-1.8,2.4-2.8,6.2-2.8,11.5h20.1c0.1-0.4,0.1-0.9,0.1-1.6
		c0-0.7,0-1.3,0-1.7c0-4.1-0.8-7.1-2.4-9C1507.1,42,1504.7,41,1501.4,41z"/>
	<path class="st0" d="M1555.2,17.1c0,2-0.6,3.7-1.8,5.2c-1.2,1.5-3,2.2-5.5,2.2c-2.4,0-4.1-0.8-5.3-2.3c-1.2-1.5-1.8-3.2-1.8-5.2
		c0-1.9,0.6-3.7,1.8-5.3c1.2-1.6,3-2.4,5.4-2.4s4.2,0.8,5.4,2.3C1554.6,13.3,1555.2,15.1,1555.2,17.1z M1541.7,90.3V32.5h12.6v57.9
		H1541.7z"/>
	<path class="st0" d="M1622.2,48.8c0,14.6-2,25.4-6,32.3c-4,6.9-10.4,10.4-19.1,10.4c-3.8,0-7.3-0.5-10.4-1.4
		c-3.1-1-5.7-2.5-7.9-4.7c-2.2-2.2-3.9-5.1-5-8.6c-1.2-3.6-1.8-8-1.8-13.4c0-5.2,0.6-9.6,1.7-13.4c1.1-3.8,2.8-6.9,4.9-9.4
		c2.1-2.5,4.7-4.3,7.8-5.5c3-1.2,6.4-1.8,10.1-1.8c1.9,0,3.9,0.1,5.9,0.4c2,0.3,4,0.8,5.8,1.5c-0.2-5.5-1.5-9.5-3.8-11.7
		c-2.3-2.3-5.7-3.6-10.1-3.9l-4.3,9.6c-2.9-0.1-5.4-0.6-7.6-1.4l3.5-7.9c-1.7,0.3-3.4,0.6-5,1c-1.7,0.4-3.1,0.8-4.3,1.3
		c0-1.9,0.1-4,0.2-6.2c0.1-2.2,0.3-4.1,0.6-5.7c2-0.8,4.2-1.4,6.8-1.7c2.5-0.3,4.8-0.6,7-0.7l3.5-7.9c1.2,0,2.5,0.1,4,0.4
		c1.5,0.3,2.7,0.7,3.7,1.3l-3,6.7c3.3,0.4,6.4,1.4,9.2,2.9c2.8,1.5,5.2,3.8,7.3,6.9c2,3.1,3.6,7.1,4.8,12.1
		C1621.7,35.3,1622.2,41.5,1622.2,48.8z M1609.1,56c0-1.6,0-3.2-0.1-5c0-1.8-0.1-3.4-0.2-4.7c-3.3-1.4-6.9-2.1-11.1-2.1
		c-1.8,0-3.5,0.3-5,0.9c-1.5,0.6-2.8,1.6-3.9,3c-1.1,1.4-1.9,3.3-2.4,5.7c-0.6,2.4-0.8,5.3-0.8,8.8c0,3.3,0.2,6.1,0.6,8.4
		c0.4,2.3,1,4.1,1.9,5.5c0.9,1.4,2.1,2.4,3.5,3c1.5,0.6,3.3,0.9,5.5,0.9c2.1,0,4-0.4,5.5-1.2c1.5-0.8,2.8-2.1,3.7-3.9
		c1-1.8,1.7-4.3,2.1-7.5C1608.8,64.5,1609.1,60.6,1609.1,56z"/>
</g>
</svg>
