<svg id="Layer_1" data-name="Layer 1" xmlns="http://www.w3.org/2000/svg" viewBox="0 0 1622.25 114.27"><defs><style>.cls-1{fill:#f2f9fc;}</style></defs><title>Artboard 9</title><path class="cls-1" d="M62.51,90.27l-3.44.33q-1.77.17-3.49.22t-3,.06L25.38,43.34q-.67-1.33-1.72-3.77a42.43,42.43,0,0,1-1.72-4.66l-1,.11q.22,1.89.39,4.49t.17,4.38V78.25q0,7.32-3,10.25T10,91.44a11.7,11.7,0,0,1-7.09-2.11Q0,87.23,0,82.24v-3.1H5.43q2.22,0,2.88-.83a5.08,5.08,0,0,0,.67-3V16.4q1.55-.22,3.49-.44t3.88-.33q1.94-.11,3.77-.17t3.27-.06L49,60.4q.89,1.55,1.88,3.77a43.66,43.66,0,0,1,1.77,4.66l1-.11q-.22-2.33-.44-4.71T53,59.74V15.63H65.5V89.89Q64.17,90.11,62.51,90.27Z"/><path class="cls-1" d="M114.71,88.56A57.84,57.84,0,0,1,110.17,99a39.57,39.57,0,0,1-5.93,8.09,26.38,26.38,0,0,1-7,5.26,17.06,17.06,0,0,1-7.81,1.88,42,42,0,0,1-5.15-.39,16.52,16.52,0,0,1-5.6-1.72q.33-3.1.94-6.15A51,51,0,0,1,81,100.53a14.78,14.78,0,0,0,4.38,1.11,41.66,41.66,0,0,0,5,.33,7.87,7.87,0,0,0,4.82-1.44,12.3,12.3,0,0,0,3.49-4.77l2.33-5.21Q98.64,84.9,95.93,78T90.61,63.62Q88,56.08,85.67,48.27T81.68,33a62.26,62.26,0,0,1,6.21-.67q3.55-.22,6.21-.22l11.19,37.57q.44,1.44.94,3.33a30.61,30.61,0,0,1,.72,3.44h.67q.33-1.55.78-3.44a31.71,31.71,0,0,1,1-3.44l11.53-37.46q2.55,0,6,.17a42.51,42.51,0,0,1,6.26.72Zm2.72-70.1a59.39,59.39,0,0,1-6,8.48q-2.55,0-5.21-.22t-4.88-.55l6.76-16.85h13.63A49.48,49.48,0,0,1,117.43,18.45Z"/><path class="cls-1" d="M220,61.4a38.74,38.74,0,0,1-2,13,26.36,26.36,0,0,1-5.54,9.37,23.52,23.52,0,0,1-8.26,5.71A26.7,26.7,0,0,1,194,91.44a29.22,29.22,0,0,1-10.36-1.77,20.85,20.85,0,0,1-8.09-5.43,24.66,24.66,0,0,1-5.21-9.31,44.15,44.15,0,0,1-1.83-13.52,38.64,38.64,0,0,1,1.94-12.69,27.72,27.72,0,0,1,5.32-9.42,22.71,22.71,0,0,1,8.15-5.87,26.09,26.09,0,0,1,10.42-2.05A30.12,30.12,0,0,1,204.49,33a21.11,21.11,0,0,1,8.15,5.26,24.46,24.46,0,0,1,5.43,9.31A43.19,43.19,0,0,1,220,61.4Zm-13.52,0q0-10.53-3.21-14.85a10.66,10.66,0,0,0-9.09-4.32,12,12,0,0,0-5,1,9.56,9.56,0,0,0-3.82,3.21,16,16,0,0,0-2.44,5.93,42.06,42.06,0,0,0-.83,9Q182.1,72,185,76.31T194,80.58a13.4,13.4,0,0,0,5.32-1,9.39,9.39,0,0,0,3.93-3.21,16,16,0,0,0,2.44-5.93A42,42,0,0,0,206.48,61.4Z"/><path class="cls-1" d="M283.51,93.54a21.4,21.4,0,0,1-1.61,8.37,17.18,17.18,0,0,1-4.82,6.54,23.34,23.34,0,0,1-8.15,4.27,38.74,38.74,0,0,1-11.58,1.55,39.18,39.18,0,0,1-11.08-1.33,19.41,19.41,0,0,1-7.15-3.66,13.27,13.27,0,0,1-3.88-5.38,18,18,0,0,1-1.16-6.48,12.43,12.43,0,0,1,1.33-5.93,22.36,22.36,0,0,1,4-5.15q-1-1.66-1.94-3.66a24.83,24.83,0,0,1-1.5-4q.33-1.22.89-3t1.38-3.77A42.44,42.44,0,0,1,240.12,68a25.5,25.5,0,0,1,2.16-3.38,16,16,0,0,1-4.77-5.71,17.76,17.76,0,0,1-1.77-8.15q0-8.65,5.43-14t15.29-5.38a26.11,26.11,0,0,1,3,.17q1.44.17,2.77.39a19.94,19.94,0,0,1,1.11-7,13.52,13.52,0,0,1,3-4.88,11.73,11.73,0,0,1,4.49-2.83,16.42,16.42,0,0,1,5.43-.89q7.43,0,7.43,6.87v4.21h-6.21q-3.33,0-4.82,1.55a6.64,6.64,0,0,0-1.5,4.77V36a16.5,16.5,0,0,1,4.88,6.26,20.27,20.27,0,0,1,1.66,8.37,20.87,20.87,0,0,1-1.5,8.26,14.94,14.94,0,0,1-4.16,5.71,17.77,17.77,0,0,1-6.32,3.33,27.39,27.39,0,0,1-8,1.11,24.9,24.9,0,0,1-4.1-.33q-2-.33-3.55-.66a14,14,0,0,0-2,3.66,9.29,9.29,0,0,0-.55,2.88,3.33,3.33,0,0,0,.83,2.6,3.91,3.91,0,0,0,2.6.72h15.85a30.28,30.28,0,0,1,6.93.72A12.7,12.7,0,0,1,279,81.13,11.29,11.29,0,0,1,282.35,86,21.45,21.45,0,0,1,283.51,93.54Zm-12,1.22q0-3.22-1.16-4.27t-4.27-1.05H246.94a7.2,7.2,0,0,0-1.22,2.77,13.36,13.36,0,0,0-.33,2.77,12.09,12.09,0,0,0,.61,4,5.71,5.71,0,0,0,2,2.77,9.91,9.91,0,0,0,3.88,1.55,31.82,31.82,0,0,0,6.21.5q6.43,0,9.92-2.11T271.54,94.76ZM266.33,50.1q0-5.54-2.55-7.7A10.11,10.11,0,0,0,257,40.23q-9.31,0-9.31,9.86,0,5.32,2.38,7.59T257,60a9.89,9.89,0,0,0,6.82-2.22Q266.33,55.53,266.33,50.1Z"/><path class="cls-1" d="M367.08,56.08q0,1.89-.11,4.21t-.33,4.32H334v1a25.06,25.06,0,0,0,.67,6.15,10,10,0,0,0,2.22,4.32,9.22,9.22,0,0,0,4.27,2.55,23.66,23.66,0,0,0,6.82.83,31.35,31.35,0,0,0,4.1-.28,41.85,41.85,0,0,0,4.21-.78q2.1-.5,3.88-1.11a17.28,17.28,0,0,0,3.1-1.39q.89,2.55,1.66,5.76t1.22,6.1a23.73,23.73,0,0,1-4.1,1.55q-2.33.66-4.82,1.16a46.61,46.61,0,0,1-5,.72q-2.49.22-4.49.22-13.41,0-20.5-7.26t-7.09-22A45.26,45.26,0,0,1,322,48.55,26.71,26.71,0,0,1,327.18,39,21,21,0,0,1,335,33.25a25.51,25.51,0,0,1,9.86-1.88q11.41,0,16.79,6.65T367.08,56.08ZM344.69,41a9.13,9.13,0,0,0-7.7,3.55q-2.72,3.55-2.83,11.53h20.06a8.51,8.51,0,0,0,.11-1.55V52.87q0-6.21-2.38-9T344.69,41Z"/><path class="cls-1" d="M398.44,17.07a7.93,7.93,0,0,1-1.83,5.21,6.7,6.7,0,0,1-5.49,2.22,6.33,6.33,0,0,1-5.32-2.27A8.15,8.15,0,0,1,384,17.07a8.62,8.62,0,0,1,1.77-5.26,7.44,7.44,0,0,1,10.86-.06A8.55,8.55,0,0,1,398.44,17.07ZM384.92,90.33V32.47h12.64V90.33Z"/><path class="cls-1" d="M452.53,90.33v-40a8.24,8.24,0,0,0-1.83-5.76q-1.83-2-6.82-2a20.72,20.72,0,0,0-12.08,3.77v44H419.17V32.92q2.66-.33,6.15-.55t6.48-.22v5.76h.67a23.44,23.44,0,0,1,8.15-5.26,24.58,24.58,0,0,1,7.81-1.27,21.5,21.5,0,0,1,6.37.94,14.53,14.53,0,0,1,5.38,3,13.79,13.79,0,0,1,3.66,5.49,23.43,23.43,0,0,1,1.33,8.42V90.33Z"/><path class="cls-1" d="M514,8.31q0,2.77-.17,5.6t-.61,5.71a14,14,0,0,0-2.72-.28q-1.83-.05-3-.06-3.33,0-4.77,1.61t-1.44,5.49v6.1h12.63q0,2.77-.22,5.54T513,43.56H501.29V92.44a29.39,29.39,0,0,1-1.16,8.37,20.74,20.74,0,0,1-3.49,6.93,17,17,0,0,1-5.82,4.77,17.78,17.78,0,0,1-8.15,1.77q-1.55,0-3.6-.17a24.5,24.5,0,0,1-3-.39,96.67,96.67,0,0,1,.67-11.31,16.63,16.63,0,0,0,2.77.33q1.88.11,3,.11,3.33,0,4.77-1.77a8.32,8.32,0,0,0,1.44-5.32V43.56H482V32.47h6.65v-5.1a21.78,21.78,0,0,1,1.44-8.15,17.39,17.39,0,0,1,9.81-10,19.26,19.26,0,0,1,7.37-1.39q1.66,0,3.71.11A20.55,20.55,0,0,1,514,8.31Z"/><path class="cls-1" d="M576.21,61.4a38.74,38.74,0,0,1-2,13,26.36,26.36,0,0,1-5.54,9.37,23.52,23.52,0,0,1-8.26,5.71,26.7,26.7,0,0,1-10.25,1.94,29.22,29.22,0,0,1-10.36-1.77,20.85,20.85,0,0,1-8.09-5.43,24.66,24.66,0,0,1-5.21-9.31,44.15,44.15,0,0,1-1.83-13.52,38.64,38.64,0,0,1,1.94-12.69,27.72,27.72,0,0,1,5.32-9.42,22.71,22.71,0,0,1,8.15-5.87,26.09,26.09,0,0,1,10.42-2.05A30.12,30.12,0,0,1,560.7,33a21.11,21.11,0,0,1,8.15,5.26,24.46,24.46,0,0,1,5.43,9.31A43.19,43.19,0,0,1,576.21,61.4Zm-29-42.34a7.39,7.39,0,0,1-1.77,5.1,6.61,6.61,0,0,1-5.21,2,6.2,6.2,0,0,1-5-2.05,7.58,7.58,0,0,1-1.72-5,8,8,0,0,1,1.66-5q1.66-2.16,5.21-2.16A6.27,6.27,0,0,1,545.46,14,7.81,7.81,0,0,1,547.18,19.06ZM562.69,61.4q0-10.53-3.21-14.85a10.66,10.66,0,0,0-9.09-4.32,12,12,0,0,0-5,1,9.56,9.56,0,0,0-3.82,3.21,16,16,0,0,0-2.44,5.93,42.06,42.06,0,0,0-.83,9q0,10.64,2.94,14.91t8.92,4.27a13.4,13.4,0,0,0,5.32-1,9.39,9.39,0,0,0,3.93-3.21,16,16,0,0,0,2.44-5.93A42,42,0,0,0,562.69,61.4Zm5.1-42.34a7.54,7.54,0,0,1-1.72,5.1,6.43,6.43,0,0,1-5.15,2,6.37,6.37,0,0,1-5.1-2.05,7.44,7.44,0,0,1-1.77-5,7.86,7.86,0,0,1,1.72-5A6.31,6.31,0,0,1,561,11.86a6.13,6.13,0,0,1,5,2.11A7.81,7.81,0,0,1,567.79,19.06Z"/><path class="cls-1" d="M593.95,90.33V8.76q2.66-.33,6.15-.61t6.48-.28V90.33Z"/><path class="cls-1" d="M680,89.55a11.36,11.36,0,0,1-6.54,1.88,15,15,0,0,1-6.48-1.55q-3.27-1.55-4.82-6.21h-.44q-4.43,4.77-8.65,6.26a24.73,24.73,0,0,1-8.31,1.5q-10.09,0-15.24-7.2t-5.15-21.17a48.72,48.72,0,0,1,1.88-14.52,27.16,27.16,0,0,1,5.21-9.81,19.76,19.76,0,0,1,8-5.6,28.45,28.45,0,0,1,10.2-1.77,36,36,0,0,1,5.43.44A32,32,0,0,1,660.22,33V8.76q2.66-.33,6.21-.61t6.43-.28V74.81a5,5,0,0,0,.72,3.1,3.2,3.2,0,0,0,2.6.89h6.54v4.1Q682.72,87.67,680,89.55Zm-19.73-45a16,16,0,0,0-4.32-1.66,21,21,0,0,0-5.1-.67,15.16,15.16,0,0,0-5.76,1,9.12,9.12,0,0,0-4,3.27,16,16,0,0,0-2.38,6,47.11,47.11,0,0,0-.78,9.31,50.07,50.07,0,0,0,.67,9,16.21,16.21,0,0,0,2,5.65,7.11,7.11,0,0,0,3.44,2.94,13.54,13.54,0,0,0,5,.83,27,27,0,0,0,6.1-.67,15.62,15.62,0,0,0,5.21-2.22Z"/><path class="cls-1" d="M748,8.31q0,2.77-.17,5.6t-.61,5.71a14,14,0,0,0-2.72-.28q-1.83-.05-3-.06-3.33,0-4.77,1.61t-1.44,5.49v6.1h12.63q0,2.77-.22,5.54T747,43.56H735.26V92.44a29.39,29.39,0,0,1-1.16,8.37,20.74,20.74,0,0,1-3.49,6.93,17,17,0,0,1-5.82,4.77,17.78,17.78,0,0,1-8.15,1.77q-1.55,0-3.6-.17a24.5,24.5,0,0,1-3-.39,96.67,96.67,0,0,1,.67-11.31,16.63,16.63,0,0,0,2.77.33q1.88.11,3,.11,3.33,0,4.77-1.77a8.32,8.32,0,0,0,1.44-5.32V43.56H716V32.47h6.65v-5.1a21.78,21.78,0,0,1,1.44-8.15,17.39,17.39,0,0,1,9.81-10,19.26,19.26,0,0,1,7.37-1.39q1.66,0,3.71.11A20.55,20.55,0,0,1,748,8.31Z"/><path class="cls-1" d="M770.33,107.84q-5.38,5.65-14.8,6.43a40.61,40.61,0,0,1-1.61-5.54q-.72-3.22-1.05-5.87,5.65-.22,7.92-2.94t2.27-7.81V32.47h12.63v59Q775.71,102.19,770.33,107.84Zm6.26-90.77a7.93,7.93,0,0,1-1.83,5.21,6.7,6.7,0,0,1-5.49,2.22A6.33,6.33,0,0,1,764,22.22a8.15,8.15,0,0,1-1.77-5.15A8.62,8.62,0,0,1,764,11.8a6.33,6.33,0,0,1,5.43-2.38,6.39,6.39,0,0,1,5.43,2.33A8.55,8.55,0,0,1,776.6,17.07Z"/><path class="cls-1" d="M841.21,74.81a5,5,0,0,0,.72,3.1,3.2,3.2,0,0,0,2.6.89h6.54v4.1q0,4.77-2.77,6.65a11.36,11.36,0,0,1-6.54,1.88,14.56,14.56,0,0,1-6.48-1.55q-3.16-1.55-4.82-6.1h-.33a25.62,25.62,0,0,1-7.76,5.87,18.78,18.78,0,0,1-7.87,1.77q-10.09,0-15.57-6.93t-5.49-21.45a46.93,46.93,0,0,1,1.83-13.8,28.34,28.34,0,0,1,5.15-9.92,21.08,21.08,0,0,1,8-6,25.9,25.9,0,0,1,10.31-2,32,32,0,0,1,9.75,1.55,15.4,15.4,0,0,1,3.6-1,26.61,26.61,0,0,1,4.27-.33q1.33,0,2.55.11a22.41,22.41,0,0,1,2.33.33ZM828.47,44.56a14.09,14.09,0,0,0-4-1.55,19.62,19.62,0,0,0-4.54-.55,16,16,0,0,0-5.76.94,8.76,8.76,0,0,0-4,3.21,15.93,15.93,0,0,0-2.38,6,46.26,46.26,0,0,0-.78,9.25,50.07,50.07,0,0,0,.67,9,16.21,16.21,0,0,0,2,5.65,7.11,7.11,0,0,0,3.44,2.94,13.54,13.54,0,0,0,5,.83,21,21,0,0,0,5.82-.72,17.81,17.81,0,0,0,4.6-2.05Zm2.05-26.1a59.46,59.46,0,0,1-6,8.48q-2.55,0-5.21-.22t-4.88-.55l6.76-16.85h13.63A49.55,49.55,0,0,1,830.52,18.45Z"/><path class="cls-1" d="M894.63,32q0,3.22-.33,6.54t-.89,6.54a21.69,21.69,0,0,0-5.21-.55,20.52,20.52,0,0,0-5.82.83,17.82,17.82,0,0,0-5.82,3.16V90.33H863.93V32.92q2.66-.33,6.15-.55t6.48-.22v7.43h.67a34.56,34.56,0,0,1,4-4.49,16.29,16.29,0,0,1,3.38-2.44,10,10,0,0,1,3-1.05,18.31,18.31,0,0,1,2.77-.22,14.71,14.71,0,0,1,2,.17A12.34,12.34,0,0,1,894.63,32Z"/><path class="cls-1" d="M971.77,90.33V50.21a8.64,8.64,0,0,0-1.66-5.6q-1.66-2-6.21-2.05a16.57,16.57,0,0,0-5.76.94,17.27,17.27,0,0,0-4.88,2.83v44H940.63v-40A8.83,8.83,0,0,0,939,44.61q-1.66-2-6-2.05a18,18,0,0,0-10.86,3.77v44H909.48V32.92q2.66-.33,6.15-.55t6.48-.22v5.76h.67a29.49,29.49,0,0,1,7.37-5,18.56,18.56,0,0,1,7.59-1.5,17.23,17.23,0,0,1,7.7,1.66,11.38,11.38,0,0,1,5.26,5.87A25.9,25.9,0,0,1,959,33a23,23,0,0,1,8.65-1.61,22.27,22.27,0,0,1,6.59.94,13.33,13.33,0,0,1,5.32,3.1,14.71,14.71,0,0,1,3.55,5.49,23.06,23.06,0,0,1,1.28,8.2V90.33Z"/><path class="cls-1" d="M1053.35,61.4a38.74,38.74,0,0,1-2,13,26.36,26.36,0,0,1-5.54,9.37,23.52,23.52,0,0,1-8.26,5.71,26.7,26.7,0,0,1-10.25,1.94,29.22,29.22,0,0,1-10.36-1.77,20.85,20.85,0,0,1-8.09-5.43,24.66,24.66,0,0,1-5.21-9.31,44.15,44.15,0,0,1-1.83-13.52,38.64,38.64,0,0,1,1.94-12.69,27.72,27.72,0,0,1,5.32-9.42,22.71,22.71,0,0,1,8.15-5.87,26.09,26.09,0,0,1,10.42-2.05,30.12,30.12,0,0,1,10.2,1.66,21.11,21.11,0,0,1,8.15,5.26,24.46,24.46,0,0,1,5.43,9.31A43.19,43.19,0,0,1,1053.35,61.4Zm-29-42.34a7.39,7.39,0,0,1-1.77,5.1,6.61,6.61,0,0,1-5.21,2,6.2,6.2,0,0,1-5-2.05,7.58,7.58,0,0,1-1.72-5,8,8,0,0,1,1.66-5q1.66-2.16,5.21-2.16a6.27,6.27,0,0,1,5.15,2.11A7.81,7.81,0,0,1,1024.31,19.06Zm15.52,42.34q0-10.53-3.21-14.85a10.66,10.66,0,0,0-9.09-4.32,12,12,0,0,0-5,1,9.56,9.56,0,0,0-3.82,3.21,16,16,0,0,0-2.44,5.93,42.06,42.06,0,0,0-.83,9q0,10.64,2.94,14.91t8.92,4.27a13.4,13.4,0,0,0,5.32-1,9.39,9.39,0,0,0,3.93-3.21,16,16,0,0,0,2.44-5.93A42,42,0,0,0,1039.82,61.4Zm5.1-42.34a7.54,7.54,0,0,1-1.72,5.1,6.43,6.43,0,0,1-5.15,2,6.37,6.37,0,0,1-5.1-2.05,7.44,7.44,0,0,1-1.77-5,7.86,7.86,0,0,1,1.72-5,6.31,6.31,0,0,1,5.26-2.16,6.13,6.13,0,0,1,5,2.11A7.81,7.81,0,0,1,1044.92,19.06Z"/><path class="cls-1" d="M1116.85,93.54a21.4,21.4,0,0,1-1.61,8.37,17.18,17.18,0,0,1-4.82,6.54,23.34,23.34,0,0,1-8.15,4.27,38.74,38.74,0,0,1-11.58,1.55,39.18,39.18,0,0,1-11.08-1.33,19.41,19.41,0,0,1-7.15-3.66,13.27,13.27,0,0,1-3.88-5.38,18,18,0,0,1-1.16-6.48,12.43,12.43,0,0,1,1.33-5.93,22.36,22.36,0,0,1,4-5.15q-1-1.66-1.94-3.66a24.83,24.83,0,0,1-1.5-4q.33-1.22.89-3t1.38-3.77a42.44,42.44,0,0,1,1.88-3.93,25.5,25.5,0,0,1,2.16-3.38,16,16,0,0,1-4.77-5.71,17.76,17.76,0,0,1-1.77-8.15q0-8.65,5.43-14t15.29-5.38a26.11,26.11,0,0,1,3,.17q1.44.17,2.77.39a19.94,19.94,0,0,1,1.11-7,13.52,13.52,0,0,1,3-4.88,11.73,11.73,0,0,1,4.49-2.83,16.42,16.42,0,0,1,5.43-.89q7.43,0,7.43,6.87v4.21h-6.21q-3.33,0-4.82,1.55a6.64,6.64,0,0,0-1.5,4.77V36a16.5,16.5,0,0,1,4.88,6.26,20.27,20.27,0,0,1,1.66,8.37,20.87,20.87,0,0,1-1.5,8.26,14.94,14.94,0,0,1-4.16,5.71,17.77,17.77,0,0,1-6.32,3.33,27.39,27.39,0,0,1-8,1.11,24.9,24.9,0,0,1-4.1-.33q-2-.33-3.55-.66a14,14,0,0,0-2,3.66,9.29,9.29,0,0,0-.55,2.88,3.33,3.33,0,0,0,.83,2.6,3.91,3.91,0,0,0,2.6.72h15.85a30.28,30.28,0,0,1,6.93.72,12.7,12.7,0,0,1,5.21,2.49,11.29,11.29,0,0,1,3.33,4.82A21.45,21.45,0,0,1,1116.85,93.54Zm-12,1.22q0-3.22-1.16-4.27t-4.27-1.05h-19.17a7.2,7.2,0,0,0-1.22,2.77,13.36,13.36,0,0,0-.33,2.77,12.09,12.09,0,0,0,.61,4,5.71,5.71,0,0,0,2,2.77,9.91,9.91,0,0,0,3.88,1.55,31.82,31.82,0,0,0,6.21.5q6.43,0,9.92-2.11T1104.88,94.76Zm-5.21-44.67q0-5.54-2.55-7.7a10.11,10.11,0,0,0-6.76-2.16q-9.31,0-9.31,9.86,0,5.32,2.38,7.59t6.93,2.27a9.89,9.89,0,0,0,6.82-2.22Q1099.67,55.53,1099.67,50.1Z"/><path class="cls-1" d="M1166,90.33v-40a8.24,8.24,0,0,0-1.83-5.76q-1.83-2-6.82-2a20.72,20.72,0,0,0-12.08,3.77v44h-12.64V32.92q2.66-.33,6.15-.55t6.48-.22v5.76h.67a23.44,23.44,0,0,1,8.15-5.26,24.58,24.58,0,0,1,7.81-1.27,21.5,21.5,0,0,1,6.37.94,14.53,14.53,0,0,1,5.38,3,13.79,13.79,0,0,1,3.66,5.49,23.43,23.43,0,0,1,1.33,8.42V90.33Z"/><path class="cls-1" d="M1232.78,90.33v-5h-.67a27,27,0,0,1-7.76,4.66,23.09,23.09,0,0,1-8.09,1.44,21.49,21.49,0,0,1-6.37-.94,14,14,0,0,1-5.32-3,14.56,14.56,0,0,1-3.66-5.49,22.55,22.55,0,0,1-1.39-8.42V32.92a57.21,57.21,0,0,1,6.21-.61q3.43-.17,6.43-.17v40a8.36,8.36,0,0,0,2,6q2,2.11,7.32,2.11a22.12,22.12,0,0,0,6-.78,23.8,23.8,0,0,0,5.32-2.22V32.92a57.24,57.24,0,0,1,6.21-.61q3.43-.17,6.43-.17V90.33Z"/><path class="cls-1" d="M1300.5,90.33v-40a8.24,8.24,0,0,0-1.83-5.76q-1.83-2-6.82-2a20.72,20.72,0,0,0-12.08,3.77v44h-12.64V32.92q2.66-.33,6.15-.55t6.48-.22v5.76h.67a23.44,23.44,0,0,1,8.15-5.26,24.58,24.58,0,0,1,7.81-1.27,21.5,21.5,0,0,1,6.37.94,14.53,14.53,0,0,1,5.38,3,13.79,13.79,0,0,1,3.66,5.49,23.43,23.43,0,0,1,1.33,8.42V90.33Z"/><path class="cls-1" d="M1378.31,74.81a5,5,0,0,0,.72,3.1,3.2,3.2,0,0,0,2.6.89h6.54v4.1q0,4.77-2.77,6.65a11.36,11.36,0,0,1-6.54,1.88,14.56,14.56,0,0,1-6.48-1.55q-3.16-1.55-4.82-6.1h-.33a25.62,25.62,0,0,1-7.76,5.87,18.78,18.78,0,0,1-7.87,1.77q-10.09,0-15.57-6.93t-5.49-21.45a46.93,46.93,0,0,1,1.83-13.8,28.34,28.34,0,0,1,5.15-9.92,21.08,21.08,0,0,1,8-6,25.9,25.9,0,0,1,10.31-2,32,32,0,0,1,9.75,1.55,15.4,15.4,0,0,1,3.6-1,26.61,26.61,0,0,1,4.27-.33q1.33,0,2.55.11a22.41,22.41,0,0,1,2.33.33Zm-12.75-30.26a14.09,14.09,0,0,0-4-1.55,19.62,19.62,0,0,0-4.54-.55,16,16,0,0,0-5.76.94,8.76,8.76,0,0,0-4,3.21,15.93,15.93,0,0,0-2.38,6,46.26,46.26,0,0,0-.78,9.25,50.07,50.07,0,0,0,.67,9,16.21,16.21,0,0,0,2,5.65,7.11,7.11,0,0,0,3.44,2.94,13.54,13.54,0,0,0,5,.83,21,21,0,0,0,5.82-.72,17.81,17.81,0,0,0,4.6-2.05Z"/><path class="cls-1" d="M1431.73,32q0,3.22-.33,6.54t-.89,6.54a21.69,21.69,0,0,0-5.21-.55,20.52,20.52,0,0,0-5.82.83,17.82,17.82,0,0,0-5.82,3.16V90.33H1401V32.92q2.66-.33,6.15-.55t6.48-.22v7.43h.67a34.56,34.56,0,0,1,4-4.49,16.29,16.29,0,0,1,3.38-2.44,10,10,0,0,1,3-1.05,18.31,18.31,0,0,1,2.77-.22,14.71,14.71,0,0,1,2,.17A12.34,12.34,0,0,1,1431.73,32Z"/><path class="cls-1" d="M1446.58,90.33V8.76q2.66-.33,6.15-.61t6.48-.28V90.33Z"/><path class="cls-1" d="M1523.83,56.08q0,1.89-.11,4.21t-.33,4.32H1490.8v1a25.06,25.06,0,0,0,.67,6.15,10,10,0,0,0,2.22,4.32,9.22,9.22,0,0,0,4.27,2.55,23.66,23.66,0,0,0,6.82.83,31.35,31.35,0,0,0,4.1-.28,41.85,41.85,0,0,0,4.21-.78q2.1-.5,3.88-1.11a17.28,17.28,0,0,0,3.1-1.39q.89,2.55,1.66,5.76t1.22,6.1a23.73,23.73,0,0,1-4.1,1.55q-2.33.66-4.82,1.16a46.61,46.61,0,0,1-5,.72q-2.49.22-4.49.22-13.41,0-20.5-7.26t-7.09-22a45.26,45.26,0,0,1,1.83-13.63,26.71,26.71,0,0,1,5.15-9.59,21,21,0,0,1,7.87-5.71,25.51,25.51,0,0,1,9.86-1.88q11.41,0,16.79,6.65T1523.83,56.08ZM1501.44,41a9.13,9.13,0,0,0-7.7,3.55q-2.72,3.55-2.83,11.53H1511a8.51,8.51,0,0,0,.11-1.55V52.87q0-6.21-2.38-9T1501.44,41Z"/><path class="cls-1" d="M1555.19,17.07a7.93,7.93,0,0,1-1.83,5.21,6.7,6.7,0,0,1-5.49,2.22,6.33,6.33,0,0,1-5.32-2.27,8.15,8.15,0,0,1-1.77-5.15,8.62,8.62,0,0,1,1.77-5.26,7.44,7.44,0,0,1,10.86-.06A8.55,8.55,0,0,1,1555.19,17.07Zm-13.52,73.26V32.47h12.64V90.33Z"/><path class="cls-1" d="M1622.25,48.77q0,21.95-6,32.31t-19.12,10.36A35.2,35.2,0,0,1,1586.67,90a18.89,18.89,0,0,1-7.92-4.71,21.47,21.47,0,0,1-5-8.65,43.1,43.1,0,0,1-1.77-13.36,46.35,46.35,0,0,1,1.72-13.41,25.35,25.35,0,0,1,4.93-9.37,19.5,19.5,0,0,1,7.76-5.49,27.55,27.55,0,0,1,10.09-1.77,47.08,47.08,0,0,1,5.93.39,23.75,23.75,0,0,1,5.82,1.5q-.33-8.31-3.77-11.75t-10.08-3.88L1590,29.15a26,26,0,0,1-7.65-1.44l3.55-7.87q-2.55.44-5,1a23.57,23.57,0,0,0-4.27,1.33q0-2.88.22-6.21t.55-5.65a27.44,27.44,0,0,1,6.76-1.72q3.77-.5,7-.72L1594.65,0a20.67,20.67,0,0,1,4,.44,11.17,11.17,0,0,1,3.66,1.33l-3,6.65a26.64,26.64,0,0,1,9.2,2.94,20.23,20.23,0,0,1,7.26,6.93,37.51,37.51,0,0,1,4.77,12.08A83.29,83.29,0,0,1,1622.25,48.77ZM1609.06,56q0-2.33-.06-5t-.17-4.71a27.73,27.73,0,0,0-11.08-2.11,13.77,13.77,0,0,0-5,.89,8.92,8.92,0,0,0-3.88,3,14.82,14.82,0,0,0-2.44,5.65,39.07,39.07,0,0,0-.83,8.76,53.84,53.84,0,0,0,.55,8.42,14.23,14.23,0,0,0,1.88,5.49,7.75,7.75,0,0,0,3.55,3,14.21,14.21,0,0,0,5.54.94,11.92,11.92,0,0,0,5.49-1.16,8.76,8.76,0,0,0,3.71-3.93,23.66,23.66,0,0,0,2.11-7.48A85.8,85.8,0,0,0,1609.06,56Z"/></svg>